<svg width="1169" height="439" viewBox="0 0 1169 439" fill="none" xmlns="http://www.w3.org/2000/svg">
<path d="M89.0215 8.15152H157.788" stroke="#6C8776" stroke-width="1.56168" stroke-linecap="round"/>
<path d="M204.55 8.15152H273.316" stroke="#6C8776" stroke-width="1.56168" stroke-linecap="round"/>
<path d="M325.579 3.96416C344.971 3.14458 363.785 2.56906 383.344 2.56906" stroke="#6C8776" stroke-width="1.56168" stroke-linecap="round"/>
<path d="M432.855 2.56894L501.622 2.56894" stroke="#6C8776" stroke-width="1.56168" stroke-linecap="round"/>
<path d="M520.877 2.56906C541.221 5.14917 561.543 4.79431 581.392 8.15084" stroke="#6C8776" stroke-width="1.56168" stroke-linecap="round"/>
<path d="M617.152 8.15152H680.417" stroke="#6C8776" stroke-width="1.56168" stroke-linecap="round"/>
<path d="M718.926 8.1514H773.939" stroke="#6C8776" stroke-width="1.56168" stroke-linecap="round"/>
<path d="M826.202 3.96439H883.966" stroke="#6C8776" stroke-width="1.56168" stroke-linecap="round"/>
<path d="M938.979 1.17346L1013.25 1.17346" stroke="#6C8776" stroke-width="1.56168" stroke-linecap="round"/>
<path d="M1060.01 5.36011C1083.69 6.45239 1093.44 14.5385 1112.27 19.3162" stroke="#6C8776" stroke-width="1.56168" stroke-linecap="round"/>
<path d="M1131.53 41.6461C1131.53 52.1196 1137.03 62.0731 1137.03 72.3496" stroke="#6C8776" stroke-width="1.56168" stroke-linecap="round"/>
<path d="M1145.28 97.4709V132.361" stroke="#6C8776" stroke-width="1.56168" stroke-linecap="round"/>
<path d="M1150.78 163.065V197.955" stroke="#6C8776" stroke-width="1.56168" stroke-linecap="round"/>
<path d="M1164.54 220.285V266.34" stroke="#6C8776" stroke-width="1.56168" stroke-linecap="round"/>
<path d="M1164.54 283.087V315.187" stroke="#6C8776" stroke-width="1.56168" stroke-linecap="round"/>
<path d="M1167.29 334.725C1167.29 347.81 1164.54 360.787 1164.54 373.802" stroke="#6C8776" stroke-width="1.56168" stroke-linecap="round"/>
<path d="M1161.78 408.693C1155.47 409.049 1152.92 413.155 1147.88 414.818C1141.22 417.015 1133.42 419.811 1126.03 421.253C1111.76 424.038 1099.14 430.595 1084.77 432.418" stroke="#6C8776" stroke-width="1.56168" stroke-linecap="round"/>
<path d="M1051.76 433.814C1029.54 433.814 1007.69 435.209 985.741 435.209" stroke="#6C8776" stroke-width="1.56168" stroke-linecap="round"/>
<path d="M859.211 435.209H936.23" stroke="#6C8776" stroke-width="1.56168" stroke-linecap="round"/>
<path d="M749.184 435.209H823.452" stroke="#6C8776" stroke-width="1.56168" stroke-linecap="round"/>
<path d="M639.157 435.209H707.924" stroke="#6C8776" stroke-width="1.56168" stroke-linecap="round"/>
<path d="M507.124 435.209H597.896" stroke="#6C8776" stroke-width="1.56168" stroke-linecap="round"/>
<path d="M375.092 432.418H449.36" stroke="#6C8776" stroke-width="1.56168" stroke-linecap="round"/>
<path d="M355.837 432.418C341.656 432.797 328.288 436.604 314.577 436.604" stroke="#6C8776" stroke-width="1.56168" stroke-linecap="round"/>
<path d="M278.818 436.605C249.386 437.538 220.302 438 190.796 438" stroke="#6C8776" stroke-width="1.56168" stroke-linecap="round"/>
<path d="M160.539 436.604C139.376 435.71 118.524 431.022 97.2734 431.022" stroke="#6C8776" stroke-width="1.56168" stroke-linecap="round"/>
<path d="M78.0189 426.835C59.0829 421.345 40.9123 412.195 25.7561 404.506" stroke="#6C8776" stroke-width="1.56168" stroke-linecap="round"/>
<path d="M17.5037 383.572C16.3558 377.165 12.123 371.133 6.50098 365.429" stroke="#6C8776" stroke-width="1.56168" stroke-linecap="round"/>
<path d="M6.50135 343.099C6.50135 336.356 2.85558 330.15 1 323.56" stroke="#6C8776" stroke-width="1.56168" stroke-linecap="round"/>
<path d="M12.0026 292.857C12.0026 287.962 9.1583 282.223 6.50122 277.505" stroke="#6C8776" stroke-width="1.56168" stroke-linecap="round"/>
<path d="M12.0026 253.78C12.0026 243.483 15.7041 231.501 9.25195 221.68" stroke="#6C8776" stroke-width="1.56168" stroke-linecap="round"/>
<path d="M14.7534 192.372C14.7534 183.009 12.0027 173.74 12.0027 164.46" stroke="#6C8776" stroke-width="1.56168" stroke-linecap="round"/>
<path d="M14.7534 112.822V129.57" stroke="#6C8776" stroke-width="1.56168" stroke-linecap="round"/>
<path d="M9.25195 58.3935V84.9102" stroke="#6C8776" stroke-width="1.56168" stroke-linecap="round"/>
<path d="M9.25195 36.0638C11.0175 27.106 34.7345 16.4023 50.5121 13.734" stroke="#6C8776" stroke-width="1.56168" stroke-linecap="round"/>
</svg>
