<svg width="133" height="133" viewBox="0 0 133 133" fill="none" xmlns="http://www.w3.org/2000/svg">
<g clip-path="url(#clip0_288_351)">
<g clip-path="url(#clip1_288_351)">
<path fill-rule="evenodd" clip-rule="evenodd" d="M42.4971 65.3571C43.8191 65.5285 45.1576 65.5285 46.4796 65.3571C47.7686 65.1679 49.0364 64.8551 50.2654 64.423C53.0194 63.3736 55.656 62.0388 58.1321 60.4405C58.5031 60.2503 58.7867 59.9246 58.924 59.531C59.0613 59.1374 59.0418 58.706 58.8696 58.3263C58.6709 57.9636 58.3447 57.6875 57.9542 57.5513C57.5638 57.4151 57.1366 57.4284 56.7554 57.5888C54.1445 58.5054 51.4646 59.2123 48.7413 59.703C47.1167 60.0361 45.4755 60.2823 43.8246 60.4405H41.3663C44.2355 56.6815 45.9597 52.1747 46.3321 47.4605C47.3154 37.6271 42.4479 27.7938 31.0413 26.8105C27.3755 26.7888 23.7569 27.6377 20.4831 29.2874C17.2094 30.937 14.3741 33.3404 12.2104 36.2996C9.79369 39.1357 8.35087 42.6724 8.0942 46.3896C7.83754 50.1069 8.78058 53.8084 10.7846 56.9496C12.055 58.8404 13.7356 60.4201 15.7013 61.5713L17.5696 62.5546C13.7982 66.4107 10.9416 71.0651 9.21128 76.1738C7.91947 80.1348 7.17508 84.2537 6.99877 88.4163C6.77921 94.4881 7.17456 100.567 8.17877 106.559C8.19059 106.781 8.24802 106.999 8.34749 107.198C8.44696 107.397 8.58635 107.573 8.75699 107.716C8.92762 107.859 9.12585 107.966 9.33934 108.029C9.55283 108.092 9.77701 108.11 9.99794 108.083C10.3978 108.034 10.7635 107.833 11.0196 107.522C11.2758 107.211 11.4028 106.813 11.3746 106.411C11.0711 100.539 11.252 94.652 11.9154 88.8096C12.3443 85.0671 13.0844 81.3668 14.1279 77.7471C15.5035 72.6992 17.8591 67.9713 21.0604 63.833C22.3879 64.1771 23.7154 64.5213 25.0429 64.7671C25.4015 64.8389 25.7739 64.7652 26.0782 64.5623C26.3825 64.3595 26.5937 64.0441 26.6654 63.6855C26.7372 63.3269 26.6635 62.9545 26.4606 62.6502C26.2578 62.3459 25.9424 62.1347 25.5838 62.063C15.7504 59.8013 13.9804 55.2288 13.9313 55.0813C12.5336 52.5661 11.9844 49.6673 12.3653 46.8152C12.7462 43.9631 14.0368 41.3099 16.0454 39.2496C17.7627 36.9631 19.9908 35.1099 22.5519 33.8379C25.1129 32.5659 27.9359 31.9104 30.7954 31.9238C39.2029 32.4155 42.5463 39.7413 42.1038 47.018C42.1535 50.8235 40.9403 54.5382 38.6539 57.5807C36.3676 60.6233 33.1371 62.822 29.4679 63.833C29.0638 63.9053 28.7021 64.1281 28.4557 64.4566C28.2094 64.7851 28.0967 65.1947 28.1404 65.603C28.2127 66.0037 28.4375 66.3607 28.7676 66.5991C29.0977 66.8375 29.5073 66.9387 29.9104 66.8813C32.5704 66.4994 35.0905 65.4507 37.2363 63.833C38.9018 64.6065 40.676 65.1205 42.4971 65.3571Z" fill="black"/>
<path fill-rule="evenodd" clip-rule="evenodd" d="M58.9678 67.2749C56.9608 69.1743 54.7322 70.8251 52.3303 72.1916C49.9536 73.5065 47.4497 74.5772 44.857 75.3874C42.862 75.8785 40.8929 76.4692 38.957 77.1574C37.5859 77.6623 36.4252 78.6151 35.6628 79.8616C34.5555 82.5704 34.0845 85.4971 34.2862 88.4166C34.2862 94.5624 36.302 102.134 36.597 106.018C36.6032 106.223 36.6505 106.424 36.7361 106.61C36.8217 106.796 36.9438 106.962 37.0952 107.1C37.2466 107.238 37.4242 107.343 37.6174 107.411C37.8105 107.479 38.0153 107.507 38.2195 107.493C38.4197 107.487 38.6167 107.441 38.7992 107.359C38.9817 107.276 39.1461 107.158 39.2831 107.012C39.4201 106.866 39.5269 106.694 39.5975 106.507C39.6681 106.32 39.7011 106.12 39.6945 105.92C39.6945 102.577 39.1537 96.4307 39.1537 90.7766C39.1537 78.0424 42.1528 81.6316 46.6762 79.8616C49.3784 78.5859 51.9616 77.0721 54.3954 75.3382C56.8725 73.5774 59.1189 71.5126 61.082 69.1924C61.2192 69.068 61.3289 68.9162 61.4039 68.7468C61.4789 68.5775 61.5177 68.3943 61.5177 68.2091C61.5177 68.0238 61.4789 67.8407 61.4039 67.6713C61.3289 67.502 61.2192 67.3502 61.082 67.2257C60.9492 67.0738 60.7847 66.9529 60.6001 66.8717C60.4154 66.7904 60.2151 66.7507 60.0134 66.7554C59.8117 66.7601 59.6135 66.809 59.4328 66.8988C59.2521 66.9886 59.0934 67.117 58.9678 67.2749Z" fill="black"/>
<path fill-rule="evenodd" clip-rule="evenodd" d="M108.478 59.5558C106.141 59.8019 103.784 59.8019 101.447 59.5558C94.4654 58.5725 84.9762 52.4758 88.3195 42.495C89.4467 39.5804 91.2522 36.9763 93.5864 34.8986C95.9207 32.8209 98.7164 31.3293 101.742 30.5475C104.936 29.5796 108.359 29.68 111.492 30.8335C114.624 31.987 117.294 34.1306 119.098 36.9392C119.994 38.3758 120.595 39.9761 120.867 41.647C121.14 43.318 121.077 45.0264 120.684 46.6731C120.291 48.3198 119.574 49.872 118.576 51.2395C117.578 52.607 116.318 53.7626 114.87 54.6392C114.534 54.877 114.306 55.2365 114.232 55.6407C114.159 56.045 114.246 56.462 114.476 56.8025C114.585 56.9794 114.729 57.1315 114.9 57.2488C115.072 57.366 115.266 57.4458 115.47 57.4829C115.674 57.52 115.884 57.5137 116.085 57.4642C116.287 57.4147 116.476 57.3233 116.64 57.1958C118.526 56.1384 120.184 54.7165 121.517 53.0128C122.85 51.3091 123.83 49.3575 124.402 47.2714C124.974 45.1854 125.126 43.0065 124.848 40.8613C124.57 38.7162 123.869 36.6476 122.785 34.7758C120.594 30.9824 117.22 28.0108 113.181 26.3151C109.141 24.6193 104.657 24.2927 100.415 25.385C96.5631 26.3913 93.0187 28.3307 90.0946 31.0319C87.1705 33.733 84.9567 37.1128 83.6487 40.8725C82.8273 43.3869 82.6811 46.0731 83.2247 48.6618C83.7683 51.2505 84.9827 53.6509 86.7462 55.6225C85.9347 55.3381 85.1458 54.993 84.3862 54.59C81.818 52.8806 79.7079 50.5679 78.2404 47.8542C77.0362 45.687 75.5112 43.7144 73.717 42.0033C72.2765 40.5569 70.4921 39.5003 68.5312 38.9327C66.5704 38.365 64.4974 38.3051 62.507 38.7583C60.876 39.4478 59.4422 40.5324 58.3349 41.9143C57.2277 43.2962 56.4818 44.932 56.1645 46.6742C55.8729 47.7862 55.8729 48.9546 56.1645 50.0667C56.6834 51.4247 57.2743 52.754 57.9345 54.0492C58.5954 55.3227 59.3343 56.5542 60.147 57.7367C62.1675 60.8382 64.5436 63.6928 67.227 66.2425C69.9392 68.8001 72.9819 70.9829 76.2737 72.7325C78.9085 73.8408 81.6 74.809 84.337 75.6333C85.1545 75.9265 85.9311 76.323 86.6479 76.8133C87.156 78.6288 87.4853 80.4896 87.6312 82.3692C87.9992 85.304 88.1471 88.2623 88.0737 91.2192C87.9636 95.7427 87.6025 100.257 86.992 104.74C86.9334 105.105 87.0221 105.479 87.2388 105.778C87.4555 106.078 87.7823 106.279 88.1474 106.338C88.5126 106.397 88.886 106.308 89.1857 106.091C89.4854 105.874 89.6867 105.548 89.7454 105.183C90.4829 100.659 91.2204 96.0375 91.5154 91.4158C91.7363 88.2895 91.7363 85.1514 91.5154 82.025C91.4575 79.998 91.2604 77.9774 90.9254 75.9775C90.718 75.1051 90.2759 74.306 89.647 73.6667C88.5659 72.7438 87.357 71.982 86.0579 71.405C83.5995 70.2742 80.6987 69.5367 78.5845 68.3567C75.7275 66.7242 73.085 64.7423 70.7179 62.4567C68.3549 60.1521 66.23 57.6154 64.3754 54.885C63.687 53.8033 63.0479 52.7217 62.4579 51.5908C60.3929 47.8542 60.8845 48.0508 61.1795 47.0183C61.3053 46.2394 61.6166 45.5022 62.0873 44.8689C62.5579 44.2357 63.1741 43.725 63.8837 43.38C65.5554 42.7408 67.7679 43.38 70.9145 45.5925C74.0612 47.805 76.3229 54.5408 82.4687 57.7859C85.3721 59.2626 88.6045 59.9734 91.8595 59.8508C92.3342 60.1584 92.8268 60.4375 93.3345 60.6867C95.7546 61.7832 98.3531 62.4328 101.005 62.6042C103.55 62.7339 106.102 62.6186 108.625 62.26C108.805 62.2421 108.979 62.1878 109.137 62.1004C109.294 62.013 109.433 61.8944 109.543 61.7517C109.654 61.6091 109.734 61.4455 109.779 61.2708C109.824 61.0961 109.833 60.9141 109.805 60.7358C109.78 60.4055 109.628 60.0978 109.38 59.8776C109.132 59.6575 108.809 59.5421 108.478 59.5558Z" fill="black"/>
<path fill-rule="evenodd" clip-rule="evenodd" d="M112.905 57.5398C112.78 57.383 112.623 57.2552 112.445 57.1653C112.266 57.0753 112.07 57.0254 111.87 57.019C111.67 57.0126 111.471 57.0499 111.287 57.1282C111.103 57.2066 110.938 57.3241 110.804 57.4727C110.67 57.6212 110.57 57.7972 110.511 57.9883C110.452 58.1795 110.435 58.3812 110.462 58.5795C110.488 58.7777 110.558 58.9678 110.666 59.1364C110.774 59.305 110.917 59.448 111.086 59.5556C115.172 64.1806 117.746 69.9454 118.461 76.0756C119.101 79.7491 119.496 83.4612 119.641 87.1873C119.823 92.9599 119.675 98.7382 119.198 104.494C119.17 104.694 119.183 104.898 119.235 105.094C119.287 105.289 119.378 105.472 119.501 105.633C119.625 105.793 119.779 105.927 119.955 106.027C120.131 106.127 120.325 106.191 120.526 106.215C120.929 106.272 121.338 106.171 121.668 105.933C121.998 105.694 122.223 105.337 122.296 104.936C123.557 99.0944 124.33 93.1576 124.606 87.1873C124.768 83.0933 124.405 78.9955 123.525 74.994C122.057 68.1437 118.314 61.9919 112.905 57.5398Z" fill="black"/>
<path fill-rule="evenodd" clip-rule="evenodd" d="M42.1039 17.8621C42.3423 18.6916 42.6549 19.498 43.0381 20.2713C43.3825 21.0339 43.7767 21.773 44.2181 22.4838C45.3496 24.2063 46.5981 25.8491 47.9548 27.4005C48.1399 27.7104 48.4356 27.9385 48.7824 28.0389C49.1291 28.1393 49.5011 28.1044 49.8231 27.9413C50.1423 27.765 50.3785 27.4693 50.4799 27.119C50.5813 26.7687 50.5396 26.3925 50.3639 26.073C49.7248 24.1555 49.3806 22.2871 48.7414 20.4188C48.4645 19.6279 48.136 18.8559 47.7581 18.108C47.4134 17.3613 47.0192 16.6386 46.5781 15.9446C45.5456 14.2238 44.4148 12.6013 43.2839 11.028C43.1009 10.6612 42.782 10.3803 42.3951 10.2451C42.0081 10.1098 41.5837 10.131 41.2121 10.304C40.8405 10.477 40.551 10.7881 40.4054 11.1713C40.2598 11.5544 40.2694 11.9793 40.4323 12.3555C41.0223 14.1255 41.4156 15.9938 42.1039 17.8621Z" fill="black"/>
<path fill-rule="evenodd" clip-rule="evenodd" d="M64.3766 19.0423C64.3764 19.399 64.5147 19.742 64.7623 19.9988C65.0099 20.2556 65.3476 20.4062 65.7041 20.419C65.8865 20.4325 66.0698 20.4082 66.2424 20.3476C66.415 20.287 66.5731 20.1913 66.707 20.0667C66.8409 19.942 66.9476 19.7911 67.0204 19.6233C67.0931 19.4554 67.1304 19.2744 67.1299 19.0915C67.5724 17.0265 68.1133 15.109 68.3591 12.9948C68.4094 12.1269 68.4094 11.2568 68.3591 10.389C68.4067 9.521 68.4067 8.65108 68.3591 7.78312C68.3591 5.76729 67.7691 3.80063 67.4741 1.73563C67.4749 1.33484 67.3227 0.948869 67.0486 0.656483C66.7745 0.364096 66.3991 0.18734 65.9991 0.162292C65.7949 0.1557 65.5914 0.190251 65.4007 0.263891C65.2101 0.33753 65.0362 0.448754 64.8894 0.590948C64.7427 0.733142 64.626 0.903402 64.5463 1.0916C64.4667 1.2798 64.4257 1.4821 64.4258 1.68646C64.0816 3.75146 63.6883 5.71812 63.4916 7.78312C63.4429 8.65105 63.4429 9.52103 63.4916 10.389C63.4434 11.2569 63.4434 12.1269 63.4916 12.9948C63.5899 15.0598 64.0816 16.9773 64.3766 19.0423Z" fill="black"/>
<path fill-rule="evenodd" clip-rule="evenodd" d="M82.2728 25.8271C83.7201 24.7872 85.0845 23.6366 86.3536 22.3854C86.8501 21.8379 87.2945 21.2454 87.6811 20.6154C88.0744 20.0254 88.4186 19.3862 88.7628 18.7471C89.5003 17.1737 90.0903 15.6496 90.7786 14.1254C91.0333 13.8008 91.1548 13.3913 91.1182 12.9802C91.0817 12.5692 90.8899 12.1875 90.5819 11.9129C90.2414 11.683 89.8244 11.5954 89.4202 11.6689C89.0159 11.7424 88.6564 11.9712 88.4186 12.3062C87.1403 13.5354 85.9603 14.6662 84.7803 15.9937C84.3378 16.5346 83.8953 17.0754 83.5019 17.6654C83.0239 18.2684 82.5963 18.9097 82.2236 19.5829C81.4861 21.1071 80.9944 22.6312 80.2078 24.1062C80.0817 24.2407 79.9839 24.3992 79.9202 24.5722C79.8565 24.7453 79.8282 24.9293 79.837 25.1135C79.8458 25.2976 79.8915 25.4781 79.9714 25.6443C80.0513 25.8105 80.1638 25.9589 80.3021 26.0808C80.4404 26.2026 80.6019 26.2955 80.7768 26.3538C80.9517 26.4121 81.1365 26.4347 81.3203 26.4202C81.5041 26.4057 81.6831 26.3544 81.8467 26.2694C82.0104 26.1844 82.1552 26.0675 82.2728 25.9254V25.8271Z" fill="black"/>
</g>
</g>
<defs>
<clipPath id="clip0_288_351">
<rect width="132.054" height="132.054" fill="white" transform="translate(0.182617 0.00012207)"/>
</clipPath>
<clipPath id="clip1_288_351">
<rect width="118" height="118" fill="white" transform="translate(7 -5)"/>
</clipPath>
</defs>
</svg>
