<svg width="123" height="123" viewBox="0 0 123 123" fill="none" xmlns="http://www.w3.org/2000/svg">
<g clip-path="url(#clip0_319_2443)">
<path fill-rule="evenodd" clip-rule="evenodd" d="M12.2725 62.5215C17.3423 66.3746 20.9419 62.775 17.0381 58.5163L16.6325 58.1107C15.8008 57.3133 14.9203 56.5683 13.9962 55.88C13.033 55.1702 12.019 54.5618 11.005 53.9535C8.55235 52.5743 5.97151 51.4367 3.29885 50.5567C2.84841 50.3348 2.32828 50.301 1.85289 50.4626C1.3775 50.6242 0.985788 50.9681 0.763928 51.4185C0.542068 51.869 0.508232 52.3891 0.669865 52.8645C0.831498 53.3399 1.17536 53.7316 1.6258 53.9535C3.80584 55.4237 5.63098 57.2995 7.70962 59.0233C9.0424 60.2082 10.4478 61.3088 11.9176 62.3187L12.2725 62.5215Z" fill="black"/>
<path fill-rule="evenodd" clip-rule="evenodd" d="M61.4001 90.1521C61.232 89.6815 60.8839 89.2969 60.4322 89.083C59.9806 88.8691 59.4625 88.8433 58.9919 89.0114C58.5213 89.1795 58.1367 89.5276 57.9228 89.9793C57.7089 90.4309 57.6831 90.949 57.8512 91.4196C58.1334 92.8986 57.8165 94.4292 56.9704 95.6747C56.1242 96.9202 54.818 97.7786 53.339 98.0611C52.4449 98.0852 51.5581 97.894 50.7534 97.5034C49.8868 97.1716 49.0943 96.672 48.4213 96.0332C47.9721 95.5668 47.5489 95.0759 47.1538 94.5629C46.9222 94.2045 46.751 93.8106 46.6468 93.3968C46.441 92.4323 46.5847 91.426 47.0524 90.5577C47.4073 90.2028 47.6608 89.8479 47.965 89.493C48.3854 88.9029 48.9198 88.403 49.5366 88.0228C50.6515 87.2922 51.9554 86.9029 53.2883 86.9029C54.6213 86.9029 55.9252 87.2922 57.04 88.0228C57.3633 88.2897 57.7751 88.4256 58.1938 88.4034C58.6125 88.3812 59.0076 88.2026 59.3009 87.9029C59.5942 87.6032 59.7642 87.2044 59.7774 86.7853C59.7906 86.3662 59.646 85.9575 59.3722 85.64C58.1262 84.3632 56.5654 83.4378 54.8474 82.9571C53.1294 82.4764 51.315 82.4575 49.5873 82.9023C49.5765 82.1123 49.4571 81.3276 49.2325 80.5701C49.0603 80.0958 48.709 79.7079 48.2539 79.4899C47.7989 79.2718 47.2765 79.241 46.7989 79.4041C46.56 79.4836 46.3395 79.6104 46.1506 79.7769C45.9617 79.9434 45.8083 80.1463 45.6995 80.3734C45.5907 80.6005 45.5287 80.8471 45.5172 81.0987C45.5058 81.3503 45.5451 81.6015 45.6329 81.8376C45.9117 82.6942 45.9117 83.6172 45.6329 84.4739C44.0715 85.3693 42.7766 86.6642 41.8812 88.2256C41.679 88.2474 41.475 88.2474 41.2728 88.2256C40.3937 88.2628 39.5201 88.0706 38.7379 87.6679C37.7623 87.4412 36.8463 87.0091 36.0509 86.4004C35.5939 85.9553 35.186 85.4624 34.8341 84.9302C34.5681 84.5851 34.3781 84.1878 34.2764 83.7641C34.1129 82.6954 34.2952 81.6025 34.7969 80.6448C35.2985 79.6871 36.0932 78.9149 37.0648 78.4408C38.1748 77.6975 39.4806 77.3007 40.8165 77.3007C42.1524 77.3007 43.4582 77.6975 44.5682 78.4408C44.8909 78.75 45.3232 78.9184 45.7701 78.9089C46.217 78.8994 46.6418 78.7128 46.951 78.3901C47.2603 78.0674 47.4287 77.635 47.4192 77.1882C47.4097 76.7413 47.223 76.3165 46.9003 76.0073C45.8723 74.917 44.6029 74.083 43.1942 73.5723C41.7854 73.0616 40.2764 72.8885 38.7886 73.0667C38.9695 71.6514 38.759 70.2136 38.1802 68.9095C38.0121 68.4389 37.664 68.0543 37.2123 67.8404C36.7607 67.6264 36.2426 67.6007 35.772 67.7688C35.3014 67.9368 34.9168 68.285 34.7029 68.7366C34.489 69.1882 34.4632 69.7063 34.6313 70.1769C34.8061 70.9214 34.8103 71.6957 34.6435 72.442C34.4767 73.1883 34.1432 73.8872 33.668 74.4863C32.6811 75.0114 31.7759 75.6775 30.981 76.4635C30.689 76.611 30.3834 76.7299 30.0684 76.8184C29.193 76.8187 28.328 76.6284 27.5335 76.2608C26.6669 75.929 25.8744 75.4293 25.2014 74.7905C24.7381 74.3371 24.3141 73.8453 23.9339 73.3202C23.6718 72.96 23.4981 72.5432 23.4269 72.1035C23.2168 71.0187 23.3902 69.8947 23.9173 68.9236C24.4445 67.9526 25.2926 67.1949 26.3167 66.7801C27.4316 66.0495 28.7355 65.6603 30.0684 65.6603C31.4014 65.6603 32.7053 66.0495 33.8201 66.7801C34.1477 66.9723 34.5308 67.0473 34.9066 66.9928C35.2824 66.9384 35.6285 66.7577 35.888 66.4805C36.1476 66.2033 36.3051 65.846 36.3346 65.4674C36.3642 65.0889 36.2642 64.7115 36.0509 64.3973C34.4496 62.9697 32.4883 62.0072 30.3794 61.614C28.2705 61.2209 26.0942 61.4119 24.086 62.1666C21.9708 62.8511 20.1717 64.2724 19.0162 66.1718C17.5565 68.2139 16.9061 70.7249 17.191 73.2188C17.3697 74.2861 17.7298 75.315 18.2557 76.2608C18.9748 77.3887 19.8258 78.4269 20.7906 79.3534C22.2663 80.6228 24.0207 81.526 25.9112 81.9897C26.6846 82.2271 27.4855 82.3634 28.294 82.3953C28.1922 83.2202 28.1922 84.0545 28.294 84.8795C28.4819 85.9358 28.8598 86.9493 29.4094 87.8707C30.0955 89.0372 30.9496 90.0963 31.9443 91.014C33.4145 92.2628 35.1474 93.164 37.0141 93.6503C38.2188 93.9795 39.4678 94.1163 40.7151 94.0559C40.7399 94.19 40.7399 94.3274 40.7151 94.4615C40.8888 95.5375 41.2675 96.5701 41.8305 97.5034C42.5177 98.6541 43.372 99.6963 44.3654 100.596C45.8153 101.875 47.5557 102.78 49.4353 103.232C51.2913 103.759 53.2574 103.759 55.1135 103.232C56.4717 102.813 57.7322 102.126 58.8206 101.212C59.909 100.297 60.8033 99.1744 61.4508 97.909C62.0093 96.6908 62.2941 95.365 62.2854 94.0249C62.2766 92.6849 61.9744 91.3629 61.4001 90.1521Z" fill="black"/>
<path fill-rule="evenodd" clip-rule="evenodd" d="M55.3164 33.0657C56.006 33.1978 56.6841 33.3842 57.3443 33.6234C60.8425 35.043 62.769 31.342 60.2341 29.7197C58.9721 28.965 57.6053 28.4012 56.1782 28.0466C53.012 27.3644 49.7485 27.2613 46.5455 27.7424C43.7171 27.9337 40.8761 27.7976 38.0789 27.3368L27.6857 23.433C25.2849 22.4229 22.7879 21.6586 20.233 21.1516C20.0165 21.1697 19.8061 21.2324 19.615 21.3359C19.424 21.4394 19.2565 21.5814 19.1231 21.7529C18.9897 21.9244 18.8933 22.1217 18.84 22.3324C18.7867 22.543 18.7777 22.7624 18.8135 22.9768C18.8476 23.3552 19.0134 23.7097 19.2821 23.9784C19.5508 24.2471 19.9053 24.4129 20.2837 24.447C20.2837 24.447 20.8921 24.7512 21.4498 25.0554C24.5931 26.6777 31.2346 30.835 35.7468 33.1164C37.6003 34.1749 39.6559 34.8313 41.7799 35.043L47.5088 33.8769C50.0577 33.2265 52.6882 32.9532 55.3164 33.0657Z" fill="black"/>
<path fill-rule="evenodd" clip-rule="evenodd" d="M121.833 20.4925C121.57 20.0565 121.145 19.7424 120.651 19.6189C120.157 19.4954 119.634 19.5725 119.196 19.8334L110.172 24.9032C108.555 25.8303 106.858 26.6108 105.102 27.2354C104.071 27.5669 102.991 27.7212 101.908 27.6916C100.211 27.6658 98.5178 27.5303 96.8383 27.2861C95.3462 27.0288 93.8727 26.6732 92.4276 26.2214C90.2982 25.5116 88.2703 24.599 86.141 23.9907C84.498 23.493 82.7876 23.2535 81.0711 23.2809C79.7024 23.3447 78.3516 23.6182 77.0659 24.0921C75.2721 24.6886 73.5668 25.5242 71.9961 26.5763C70.7286 27.3368 59.068 38.1355 57.9526 39.3016C55.9995 41.1516 54.2952 43.2479 52.8828 45.5375C51.9083 47.2602 51.3526 49.1879 51.2604 51.165C51.1467 52.3212 51.2975 53.4881 51.7016 54.5773C52.1057 55.6664 52.7523 56.6494 53.5926 57.4516C54.785 58.3945 56.1741 59.0571 57.6572 59.3906C59.1403 59.7241 60.6794 59.7198 62.1606 59.3782C64.778 58.8546 67.2304 57.7067 69.3091 56.0321C71.3804 54.3845 73.3133 52.5702 75.0887 50.6074C77.6707 51.6923 80.4088 52.3597 83.2004 52.5846C84.5142 52.7363 85.8411 52.7363 87.1549 52.5846C88.4576 52.396 89.7337 52.0557 90.9573 51.5706C93.7546 50.3943 96.2885 48.6706 98.41 46.5008C98.5954 46.379 98.754 46.2205 98.8757 46.0351C98.9975 45.8496 99.08 45.6411 99.118 45.4226C99.156 45.204 99.1488 44.9799 99.0967 44.7643C99.0447 44.5486 98.949 44.3459 98.8156 44.1686C98.6891 43.9888 98.5285 43.8356 98.3428 43.7179C98.1572 43.6002 97.9502 43.5202 97.7336 43.4825C97.517 43.4449 97.2951 43.4503 97.0806 43.4984C96.8661 43.5465 96.6632 43.6365 96.4835 43.7631C94.1514 44.7519 91.6951 45.4171 89.1829 45.7403L84.7721 46.5008C83.7581 46.5008 82.8456 46.8557 81.8316 46.9064C80.2456 47.0333 78.652 47.0333 77.0659 46.9064C77.1155 46.7238 77.1155 46.5313 77.0659 46.3487C76.9147 46.1923 76.7335 46.0679 76.5331 45.983C76.3328 45.8981 76.1175 45.8543 75.8999 45.8543C75.6823 45.8543 75.4669 45.8981 75.2666 45.983C75.0663 46.0679 74.8851 46.1923 74.7338 46.3487C72.3396 48.7264 69.763 50.9131 67.0276 52.8888C65.3927 54.0143 63.518 54.7433 61.5522 55.0181C60.1917 55.2403 58.7961 54.9898 57.5977 54.3083C57.121 54.048 56.7406 53.6414 56.5124 53.1486C56.2842 52.6557 56.2204 52.1025 56.3303 51.5706C56.543 50.4102 56.9916 49.3059 57.6484 48.3259C58.9109 46.5575 60.374 44.9413 62.0085 43.5096C64.4927 41.0253 67.0783 38.4397 69.7147 35.9555C71.374 34.4283 73.1542 33.038 75.038 31.7982C76.0178 31.1365 77.0525 30.5598 78.1306 30.0745C80.1277 29.198 82.3659 29.0368 84.4679 29.6182C86.5465 30.0745 88.5238 30.835 90.6024 31.4433C92.4192 31.8957 94.2659 32.2176 96.1286 32.4066C97.9523 32.5075 99.7802 32.5075 101.604 32.4066C103.231 32.3594 104.84 32.0513 106.37 31.494C108.382 30.6514 110.316 29.6335 112.149 28.4521L120.92 22.926C121.357 22.7167 121.696 22.3465 121.866 21.8929C122.036 21.4393 122.024 20.9374 121.833 20.4925Z" fill="black"/>
<path fill-rule="evenodd" clip-rule="evenodd" d="M94.7077 71.85C94.3976 70.9628 94.0248 70.0988 93.5924 69.2644C92.1585 66.804 90.4583 64.5087 88.5225 62.4201L83.0978 56.2349C82.8226 55.9158 82.4372 55.7123 82.0185 55.6651C81.5998 55.6179 81.1787 55.7303 80.8393 55.9801C80.4999 56.2298 80.2673 56.5984 80.1878 57.0121C80.1084 57.4259 80.188 57.8545 80.4108 58.2121L84.416 65.4113C85.734 67.5157 86.8866 69.7192 87.8634 72.0021C88.4809 73.2812 88.8916 74.6502 89.0802 76.058C89.2415 76.9446 89.212 77.8554 88.9934 78.7296C88.7748 79.6039 88.3723 80.4214 87.8127 81.1278C87.102 81.937 86.1937 82.5484 85.1764 82.9023C85.1016 82.7121 85.017 82.526 84.9229 82.3446C83.8535 80.7546 82.6673 79.2464 81.374 77.8324L74.0735 69.5686C73.9337 69.3622 73.7546 69.1853 73.5464 69.0482C73.3382 68.911 73.1051 68.8161 72.8603 68.7691C72.3659 68.674 71.854 68.7792 71.4371 69.0616C71.0203 69.3439 70.7327 69.7803 70.6377 70.2747C70.5426 70.7691 70.6478 71.2811 70.9302 71.6979L76.6084 81.3813C77.574 82.738 78.4708 84.1425 79.2954 85.5893C79.7338 86.3369 80.0746 87.1378 80.3094 87.9721C80.5911 88.5523 80.6743 89.2091 80.546 89.8412C80.4177 90.4734 80.0852 91.0458 79.5996 91.4703C78.8745 92.0701 77.9968 92.4563 77.0647 92.5857C77.0647 92.5857 77.0647 92.2815 77.0647 92.1294C76.5265 90.9786 75.8634 89.8905 75.0874 88.8847C73.8707 87.4144 72.7046 85.9949 71.3864 84.626C70.0683 83.2571 68.8515 81.939 67.4827 80.6715C67.2048 80.3319 66.8047 80.115 66.3685 80.0676C65.9322 80.0202 65.4948 80.146 65.1505 80.418C64.8075 80.7048 64.5893 81.1136 64.542 81.5582C64.4947 82.0028 64.622 82.4484 64.897 82.8009C65.7082 84.0176 66.418 85.1837 67.1278 86.4511C67.8376 87.7186 69.105 90.1521 70.0176 92.0787L71.4371 95.5262L70.7274 96.7429C70.3852 97.2908 69.9342 97.7624 69.4022 98.1287C68.8702 98.495 68.2686 98.7481 67.6348 98.8723C66.4101 99.198 65.1078 99.0533 63.9845 98.4667C63.7748 98.3365 63.5416 98.249 63.2981 98.2092C63.0546 98.1693 62.8056 98.1779 62.5654 98.2344C62.3252 98.2909 62.0986 98.3943 61.8984 98.5385C61.6982 98.6828 61.5285 98.8651 61.3988 99.0751C61.1335 99.5063 61.0485 100.025 61.1624 100.518C61.2762 101.011 61.5797 101.44 62.0072 101.711C63.6368 103.124 65.732 103.883 67.8883 103.841C69.293 103.877 70.6898 103.621 71.9902 103.088C73.2906 102.556 74.4662 101.759 75.4423 100.748C76.1823 99.9871 76.7982 99.1146 77.2675 98.1625C77.4222 97.6677 77.5242 97.1578 77.5717 96.6415C79.3164 96.7631 81.0629 96.4312 82.6415 95.6783C84.1336 94.8431 85.3298 93.5656 86.0653 92.0219C86.8008 90.4783 87.0394 88.7445 86.7481 87.0595C88.6225 86.708 90.3712 85.8687 91.8179 84.626C92.9731 83.5736 93.905 82.2998 94.5582 80.8802C95.2114 79.4605 95.5726 77.9241 95.6203 76.3622C95.5041 74.8261 95.1975 73.3105 94.7077 71.85Z" fill="black"/>
<path fill-rule="evenodd" clip-rule="evenodd" d="M122.237 65.6141C122.177 65.374 122.071 65.148 121.924 64.9492C121.777 64.7503 121.593 64.5824 121.381 64.4552C121.169 64.328 120.933 64.2439 120.689 64.2079C120.444 64.1719 120.195 64.1845 119.955 64.2452C116.863 64.6001 113.871 64.7015 110.88 65.2085C108.845 65.5356 106.842 66.0446 104.898 66.7294C102.662 67.5726 100.535 68.6789 98.5604 70.0248C94.4031 71.7486 96.8873 75.0947 100.791 73.9793L105.506 73.016L109.055 72.1542L112.553 71.0388C115.342 70.0755 118.079 69.0109 120.868 67.8955C121.108 67.8362 121.334 67.7301 121.533 67.5832C121.732 67.4363 121.899 67.2515 122.027 67.0395C122.154 66.8274 122.238 66.5923 122.274 66.3477C122.31 66.1031 122.297 65.8538 122.237 65.6141Z" fill="black"/>
</g>
<defs>
<clipPath id="clip0_319_2443">
<rect width="121.676" height="121.676" fill="white" transform="translate(0.562256 0.872192)"/>
</clipPath>
</defs>
</svg>
