<svg width="462" height="406" viewBox="0 0 462 406" fill="none" xmlns="http://www.w3.org/2000/svg">
<path d="M35.6555 7.69177H62.737" stroke="#6C8776" stroke-width="1.56168" stroke-linecap="round"/>
<path d="M81.1521 7.69177H108.234" stroke="#6C8776" stroke-width="1.56168" stroke-linecap="round"/>
<path d="M128.816 3.81993C136.452 3.06172 143.862 2.5293 151.564 2.5293" stroke="#6C8776" stroke-width="1.56168" stroke-linecap="round"/>
<path d="M171.063 2.5293H198.144" stroke="#6C8776" stroke-width="1.56168" stroke-linecap="round"/>
<path d="M205.727 2.5293C213.739 4.9156 221.742 4.5874 229.559 7.69181" stroke="#6C8776" stroke-width="1.56168" stroke-linecap="round"/>
<path d="M243.641 7.69177H268.556" stroke="#6C8776" stroke-width="1.56168" stroke-linecap="round"/>
<path d="M283.722 7.69177H305.387" stroke="#6C8776" stroke-width="1.56168" stroke-linecap="round"/>
<path d="M325.969 3.81982H348.717" stroke="#6C8776" stroke-width="1.56168" stroke-linecap="round"/>
<path d="M370.383 1.23865H399.631" stroke="#6C8776" stroke-width="1.56168" stroke-linecap="round"/>
<path d="M418.046 5.11035C427.372 6.12046 431.211 13.5983 438.628 18.0166" stroke="#6C8776" stroke-width="1.56168" stroke-linecap="round"/>
<path d="M446.211 38.6669C446.211 48.3525 448.377 57.5572 448.377 67.0607" stroke="#6C8776" stroke-width="1.56168" stroke-linecap="round"/>
<path d="M451.627 90.2921V122.558" stroke="#6C8776" stroke-width="1.56168" stroke-linecap="round"/>
<path d="M453.794 150.951V183.217" stroke="#6C8776" stroke-width="1.56168" stroke-linecap="round"/>
<path d="M459.21 203.867V246.458" stroke="#6C8776" stroke-width="1.56168" stroke-linecap="round"/>
<path d="M459.21 261.946V291.63" stroke="#6C8776" stroke-width="1.56168" stroke-linecap="round"/>
<path d="M460.293 309.699C460.293 321.8 459.21 333.8 459.21 345.836" stroke="#6C8776" stroke-width="1.56168" stroke-linecap="round"/>
<path d="M458.127 378.102C455.64 378.431 454.637 382.228 452.65 383.767C450.026 385.799 446.955 388.384 444.045 389.718C438.425 392.293 433.457 398.357 427.796 400.043" stroke="#6C8776" stroke-width="1.56168" stroke-linecap="round"/>
<path d="M414.797 401.333C406.047 401.333 397.441 402.624 388.798 402.624" stroke="#6C8776" stroke-width="1.56168" stroke-linecap="round"/>
<path d="M338.968 402.624H369.3" stroke="#6C8776" stroke-width="1.56168" stroke-linecap="round"/>
<path d="M295.638 402.624H324.886" stroke="#6C8776" stroke-width="1.56168" stroke-linecap="round"/>
<path d="M252.307 402.624H279.389" stroke="#6C8776" stroke-width="1.56168" stroke-linecap="round"/>
<path d="M200.311 402.624H236.058" stroke="#6C8776" stroke-width="1.56168" stroke-linecap="round"/>
<path d="M148.314 400.043H177.562" stroke="#6C8776" stroke-width="1.56168" stroke-linecap="round"/>
<path d="M140.732 400.043C135.147 400.393 129.882 403.915 124.483 403.915" stroke="#6C8776" stroke-width="1.56168" stroke-linecap="round"/>
<path d="M110.4 403.915C98.8093 404.778 87.3556 405.205 75.7358 405.205" stroke="#6C8776" stroke-width="1.56168" stroke-linecap="round"/>
<path d="M63.8203 403.915C55.4859 403.087 47.2741 398.752 38.9053 398.752" stroke="#6C8776" stroke-width="1.56168" stroke-linecap="round"/>
<path d="M31.3224 394.88C23.8651 389.803 16.7092 381.341 10.7405 374.23" stroke="#6C8776" stroke-width="1.56168" stroke-linecap="round"/>
<path d="M7.49076 354.871C7.0387 348.946 5.37174 343.368 3.15771 338.093" stroke="#6C8776" stroke-width="1.56168" stroke-linecap="round"/>
<path d="M3.15749 317.442C3.15749 311.207 1.72173 305.468 0.990967 299.374" stroke="#6C8776" stroke-width="1.56168" stroke-linecap="round"/>
<path d="M5.32424 270.98C5.32424 266.454 4.20412 261.146 3.15771 256.783" stroke="#6C8776" stroke-width="1.56168" stroke-linecap="round"/>
<path d="M5.32398 234.842C5.32398 225.32 6.78169 214.24 4.24072 205.158" stroke="#6C8776" stroke-width="1.56168" stroke-linecap="round"/>
<path d="M6.40723 178.055C6.40723 169.396 5.32397 160.824 5.32397 152.242" stroke="#6C8776" stroke-width="1.56168" stroke-linecap="round"/>
<path d="M6.40723 104.489V119.976" stroke="#6C8776" stroke-width="1.56168" stroke-linecap="round"/>
<path d="M4.24072 54.1543V78.6762" stroke="#6C8776" stroke-width="1.56168" stroke-linecap="round"/>
<path d="M4.24072 33.5044C4.93602 25.2204 14.2762 15.322 20.4896 12.8544" stroke="#6C8776" stroke-width="1.56168" stroke-linecap="round"/>
</svg>
