<svg width="475" height="303" viewBox="0 0 475 303" fill="none" xmlns="http://www.w3.org/2000/svg">
<path d="M37.5625 6.77478H65.3458" stroke="#6C8776" stroke-width="2.38991" stroke-linecap="round"/>
<path d="M84.2388 6.77478H112.022" stroke="#6C8776" stroke-width="2.38991" stroke-linecap="round"/>
<path d="M133.137 3.91005C140.972 3.34904 148.573 2.95508 156.475 2.95508" stroke="#6C8776" stroke-width="2.38991" stroke-linecap="round"/>
<path d="M176.479 2.95508H204.262" stroke="#6C8776" stroke-width="2.38991" stroke-linecap="round"/>
<path d="M212.042 2.95508C220.261 4.72077 228.471 4.47793 236.491 6.77497" stroke="#6C8776" stroke-width="2.38991" stroke-linecap="round"/>
<path d="M250.938 6.77478H276.499" stroke="#6C8776" stroke-width="2.38991" stroke-linecap="round"/>
<path d="M292.058 6.77478H314.284" stroke="#6C8776" stroke-width="2.38991" stroke-linecap="round"/>
<path d="M335.399 3.90979H358.737" stroke="#6C8776" stroke-width="2.38991" stroke-linecap="round"/>
<path d="M380.964 2H410.97" stroke="#6C8776" stroke-width="2.38991" stroke-linecap="round"/>
<path d="M429.863 4.86487C439.43 5.61228 443.369 11.1453 450.978 14.4146" stroke="#6C8776" stroke-width="2.38991" stroke-linecap="round"/>
<path d="M458.757 29.6942C458.757 36.8608 460.98 43.6717 460.98 50.7036" stroke="#6C8776" stroke-width="2.38991" stroke-linecap="round"/>
<path d="M464.314 67.8931V91.7674" stroke="#6C8776" stroke-width="2.38991" stroke-linecap="round"/>
<path d="M466.537 112.777V136.651" stroke="#6C8776" stroke-width="2.38991" stroke-linecap="round"/>
<path d="M472.093 151.931V183.445" stroke="#6C8776" stroke-width="2.38991" stroke-linecap="round"/>
<path d="M472.093 194.905V216.869" stroke="#6C8776" stroke-width="2.38991" stroke-linecap="round"/>
<path d="M473.205 230.238C473.205 239.192 472.093 248.072 472.093 256.978" stroke="#6C8776" stroke-width="2.38991" stroke-linecap="round"/>
<path d="M470.982 280.852C468.431 281.096 467.401 283.905 465.364 285.043C462.672 286.547 459.521 288.46 456.535 289.447C450.769 291.352 445.672 295.839 439.865 297.087" stroke="#6C8776" stroke-width="2.38991" stroke-linecap="round"/>
<path d="M426.528 298.041C417.552 298.041 408.723 298.996 399.856 298.996" stroke="#6C8776" stroke-width="2.38991" stroke-linecap="round"/>
<path d="M348.735 298.996H379.853" stroke="#6C8776" stroke-width="2.38991" stroke-linecap="round"/>
<path d="M304.282 298.996H334.288" stroke="#6C8776" stroke-width="2.38991" stroke-linecap="round"/>
<path d="M259.829 298.996H287.612" stroke="#6C8776" stroke-width="2.38991" stroke-linecap="round"/>
<path d="M206.485 298.996H243.159" stroke="#6C8776" stroke-width="2.38991" stroke-linecap="round"/>
<path d="M153.141 297.087H183.147" stroke="#6C8776" stroke-width="2.38991" stroke-linecap="round"/>
<path d="M145.362 297.087C139.632 297.346 134.232 299.951 128.692 299.951" stroke="#6C8776" stroke-width="2.38991" stroke-linecap="round"/>
<path d="M114.244 299.951C102.353 300.59 90.6026 300.906 78.6816 300.906" stroke="#6C8776" stroke-width="2.38991" stroke-linecap="round"/>
<path d="M66.4571 299.952C57.9067 299.339 49.4822 296.132 40.8965 296.132" stroke="#6C8776" stroke-width="2.38991" stroke-linecap="round"/>
<path d="M33.1173 293.267C25.4667 289.51 18.1254 283.249 12.002 277.987" stroke="#6C8776" stroke-width="2.38991" stroke-linecap="round"/>
<path d="M8.66798 263.663C8.20421 259.279 6.49406 255.152 4.22266 251.248" stroke="#6C8776" stroke-width="2.38991" stroke-linecap="round"/>
<path d="M4.22266 235.968C4.22266 231.354 2.7497 227.108 2 222.599" stroke="#6C8776" stroke-width="2.38991" stroke-linecap="round"/>
<path d="M6.44532 201.589C6.44532 198.24 5.29617 194.313 4.22266 191.085" stroke="#6C8776" stroke-width="2.38991" stroke-linecap="round"/>
<path d="M6.44532 174.85C6.44532 167.804 7.9408 159.606 5.33398 152.886" stroke="#6C8776" stroke-width="2.38991" stroke-linecap="round"/>
<path d="M7.55664 132.831C7.55664 126.424 6.44531 120.082 6.44531 113.732" stroke="#6C8776" stroke-width="2.38991" stroke-linecap="round"/>
<path d="M7.55664 78.3978V89.8575" stroke="#6C8776" stroke-width="2.38991" stroke-linecap="round"/>
<path d="M5.33398 41.1538V59.2983" stroke="#6C8776" stroke-width="2.38991" stroke-linecap="round"/>
<path d="M5.33398 25.8744C6.0473 19.7448 15.6295 12.4207 22.004 10.5948" stroke="#6C8776" stroke-width="2.38991" stroke-linecap="round"/>
</svg>
