<svg width="548" height="512" viewBox="0 0 548 512" fill="none" xmlns="http://www.w3.org/2000/svg">
<path d="M42.1792 9.72899H74.3506" stroke="#6C8776" stroke-width="1.56168" stroke-linecap="round"/>
<path d="M96.2275 9.72899H128.399" stroke="#6C8776" stroke-width="1.56168" stroke-linecap="round"/>
<path d="M152.849 4.85343C161.921 3.89867 170.723 3.22821 179.873 3.22821" stroke="#6C8776" stroke-width="1.56168" stroke-linecap="round"/>
<path d="M203.037 3.22821H235.208" stroke="#6C8776" stroke-width="1.56168" stroke-linecap="round"/>
<path d="M244.216 3.22821C253.733 6.23316 263.241 5.81988 272.527 9.72909" stroke="#6C8776" stroke-width="1.56168" stroke-linecap="round"/>
<path d="M289.256 9.72899H318.854" stroke="#6C8776" stroke-width="1.56168" stroke-linecap="round"/>
<path d="M336.87 9.72899H362.607" stroke="#6C8776" stroke-width="1.56168" stroke-linecap="round"/>
<path d="M387.057 4.85323H414.081" stroke="#6C8776" stroke-width="1.56168" stroke-linecap="round"/>
<path d="M439.818 1.60292H474.563" stroke="#6C8776" stroke-width="1.56168" stroke-linecap="round"/>
<path d="M496.439 6.47844C507.518 7.75042 512.079 17.1668 520.89 22.7306" stroke="#6C8776" stroke-width="1.56168" stroke-linecap="round"/>
<path d="M529.898 48.7343C529.898 60.9308 532.472 72.5219 532.472 84.4891" stroke="#6C8776" stroke-width="1.56168" stroke-linecap="round"/>
<path d="M536.332 113.743V154.374" stroke="#6C8776" stroke-width="1.56168" stroke-linecap="round"/>
<path d="M538.906 190.128V230.759" stroke="#6C8776" stroke-width="1.56168" stroke-linecap="round"/>
<path d="M545.34 256.763V310.395" stroke="#6C8776" stroke-width="1.56168" stroke-linecap="round"/>
<path d="M545.34 329.898V367.278" stroke="#6C8776" stroke-width="1.56168" stroke-linecap="round"/>
<path d="M546.627 390.031C546.627 405.269 545.34 420.381 545.34 435.537" stroke="#6C8776" stroke-width="1.56168" stroke-linecap="round"/>
<path d="M544.053 476.167C541.1 476.582 539.907 481.363 537.548 483.3C534.431 485.859 530.782 489.115 527.324 490.794C520.648 494.037 514.746 501.673 508.021 503.796" stroke="#6C8776" stroke-width="1.56168" stroke-linecap="round"/>
<path d="M492.579 505.421C482.185 505.421 471.961 507.046 461.694 507.046" stroke="#6C8776" stroke-width="1.56168" stroke-linecap="round"/>
<path d="M402.499 507.047H438.531" stroke="#6C8776" stroke-width="1.56168" stroke-linecap="round"/>
<path d="M351.025 507.047H385.77" stroke="#6C8776" stroke-width="1.56168" stroke-linecap="round"/>
<path d="M299.551 507.047H331.722" stroke="#6C8776" stroke-width="1.56168" stroke-linecap="round"/>
<path d="M237.782 507.047H280.248" stroke="#6C8776" stroke-width="1.56168" stroke-linecap="round"/>
<path d="M176.013 503.796H210.758" stroke="#6C8776" stroke-width="1.56168" stroke-linecap="round"/>
<path d="M167.005 503.796C160.37 504.237 154.116 508.672 147.702 508.672" stroke="#6C8776" stroke-width="1.56168" stroke-linecap="round"/>
<path d="M130.972 508.672C117.203 509.758 103.597 510.297 89.793 510.297" stroke="#6C8776" stroke-width="1.56168" stroke-linecap="round"/>
<path d="M75.6377 508.672C65.7369 507.63 55.9818 502.171 46.04 502.171" stroke="#6C8776" stroke-width="1.56168" stroke-linecap="round"/>
<path d="M37.0318 497.295C28.1729 490.902 19.6721 480.247 12.5815 471.292" stroke="#6C8776" stroke-width="1.56168" stroke-linecap="round"/>
<path d="M8.72116 446.913C8.18414 439.453 6.20388 432.429 3.57373 425.786" stroke="#6C8776" stroke-width="1.56168" stroke-linecap="round"/>
<path d="M3.57371 399.782C3.57371 391.93 1.8681 384.703 1 377.029" stroke="#6C8776" stroke-width="1.56168" stroke-linecap="round"/>
<path d="M6.14744 341.274C6.14744 335.574 4.8168 328.891 3.57373 323.397" stroke="#6C8776" stroke-width="1.56168" stroke-linecap="round"/>
<path d="M6.1477 295.768C6.1477 283.777 7.87937 269.824 4.86084 258.388" stroke="#6C8776" stroke-width="1.56168" stroke-linecap="round"/>
<path d="M7.43432 224.258C7.43432 213.354 6.14746 202.56 6.14746 191.754" stroke="#6C8776" stroke-width="1.56168" stroke-linecap="round"/>
<path d="M7.43408 131.621V151.123" stroke="#6C8776" stroke-width="1.56168" stroke-linecap="round"/>
<path d="M4.86084 68.2369V99.1161" stroke="#6C8776" stroke-width="1.56168" stroke-linecap="round"/>
<path d="M4.86084 42.2335C5.68682 31.8019 16.7824 19.3373 24.1637 16.2299" stroke="#6C8776" stroke-width="1.56168" stroke-linecap="round"/>
</svg>
