<svg width="35" height="29" viewBox="0 0 35 29" fill="none" xmlns="http://www.w3.org/2000/svg">
<path fill-rule="evenodd" clip-rule="evenodd" d="M1.25044 11.8258C0.914774 12.9835 0.914774 14.2384 0.914774 16.0858C0.914774 21.9176 5.6424 26.6453 11.4742 26.6453C14.0126 26.6453 16.3417 25.7496 18.1629 24.2572C15.6324 22.4532 14.364 21.2704 12.8556 18.2867C12.3224 16.1379 12.2667 14.9072 12.5044 12.6675C12.9895 9.24508 13.812 7.56606 16.0165 4.87941C14.8644 3.80828 13.4918 2.56054 11.8563 1.07391C11.7305 0.959562 11.6032 0.843798 11.4742 0.726593C4.25978 7.28518 1.9744 9.32914 1.25044 11.8258Z" fill="#FF2A23"/>
<path d="M34.513 13.2059C34.513 19.0378 34.513 18.9656 23.9535 28.5652C13.394 18.9656 13.394 19.0378 13.394 13.2059C13.394 7.37411 18.1217 2.64648 23.9535 2.64648C29.7853 2.64648 34.513 7.37411 34.513 13.2059Z" fill="#FF2A23"/>
</svg>
