<svg width="109" height="108" viewBox="0 0 109 108" fill="none" xmlns="http://www.w3.org/2000/svg">
<g clip-path="url(#clip0_319_2435)">
<path fill-rule="evenodd" clip-rule="evenodd" d="M82.7722 14.2244C82.2629 15.1238 82.0006 16.1419 82.0121 17.1755C82.0477 18.5822 82.258 19.979 82.6381 21.3338C83.4429 24.2402 84.0689 28.0408 84.8737 31.4837C85.2761 33.1828 85.768 34.7478 86.2598 35.955C87.2707 38.4467 88.4202 40.8799 89.7028 43.2433C90.4538 44.6617 91.4534 45.9339 92.6538 46.9992C94.0237 47.7657 95.5564 48.1949 97.1252 48.2512C105.665 46.9098 103.743 41.6336 95.5155 42.3937C94.1741 42.3937 94.3082 41.41 91.0442 33.8535L87.02 19.6347C86.4387 17.9356 86.4834 17.6673 88.4955 16.2365C97.4381 12.9277 94.1741 8.50111 86.8411 10.0214C86.1218 10.4313 85.4343 10.8946 84.7843 11.4075C83.9625 12.2287 83.2826 13.1806 82.7722 14.2244Z" fill="black"/>
<path fill-rule="evenodd" clip-rule="evenodd" d="M103.787 50.7998C103.839 51.6292 103.685 52.4585 103.34 53.2143C102.374 54.3037 101.118 55.0949 99.7182 55.4947C97.2285 56.4598 94.6312 57.1204 91.9828 57.4621C92.0044 57.1793 92.0044 56.8953 91.9828 56.6125C91.5725 53.7697 90.6804 51.0176 89.3448 48.4747C88.3129 46.7597 86.9799 45.245 85.41 44.0034C83.9584 42.7017 82.2478 41.7219 80.3906 41.1285C78.5333 40.5351 76.5715 40.3415 74.6341 40.5605C73.3115 40.733 72.0396 41.1801 70.9 41.8731C69.7604 42.5661 68.7782 43.4897 68.0165 44.5847C67.1597 45.7894 66.5238 47.1369 66.1386 48.5642C64.9313 53.0355 66.1386 57.9539 63.4558 61.9781C60.773 66.0023 55.4968 67.925 52.9482 71.3232C52.2199 72.3068 51.7013 73.4294 51.4244 74.6215C51.1475 75.8136 51.1183 77.0499 51.3385 78.2537C51.3549 78.4345 51.4079 78.61 51.4941 78.7697C51.5803 78.9294 51.6981 79.0699 51.8402 79.1828C51.9823 79.2957 52.1459 79.3785 52.321 79.4263C52.496 79.4741 52.679 79.4859 52.8588 79.461C53.0453 79.4445 53.2267 79.3904 53.3918 79.3019C53.5568 79.2134 53.7023 79.0924 53.8193 78.9462C53.9363 78.7999 54.0225 78.6314 54.0725 78.4509C54.1226 78.2704 54.1356 78.0817 54.1107 77.896C54.0043 77.1015 54.0647 76.2936 54.2879 75.5237C54.5112 74.7539 54.8925 74.039 55.4074 73.4247C58.2244 70.0265 63.7241 68.551 66.7199 64.4821C67.5234 63.3336 68.142 62.0662 68.5531 60.7262C69.8945 56.4784 69.1344 51.4258 71.9066 47.8935C72.4231 47.2174 73.1077 46.6883 73.8921 46.3589C74.6765 46.0294 75.5336 45.911 76.3779 46.0155C78.3213 46.2271 80.1501 47.0399 81.6094 48.3406C82.9919 49.4569 84.0943 50.8809 84.8287 52.4989C85.5598 54.3004 86.0993 56.1737 86.4384 58.0881C86.6068 59.2432 86.6964 60.4084 86.7067 61.5757C86.6991 63.4875 86.5946 65.3977 86.3937 67.299C86.2318 70.2351 85.2904 73.075 83.6662 75.5262C81.3858 78.8797 77.9876 81.4731 73.7846 86.481C71.5389 89.1229 69.7961 92.1538 68.6425 95.4236C67.5283 98.6626 66.9396 102.059 66.8987 105.484C66.8928 105.696 66.9285 105.906 67.004 106.104C67.0794 106.301 67.193 106.482 67.3384 106.636C67.4837 106.789 67.6579 106.913 67.851 106.999C68.0441 107.085 68.2523 107.133 68.4637 107.138C68.6692 107.144 68.8739 107.11 69.0661 107.037C69.2582 106.963 69.4341 106.853 69.5836 106.712C69.733 106.571 69.8532 106.401 69.9373 106.214C70.0213 106.026 70.0676 105.824 70.0734 105.618C70.2147 102.551 70.8644 99.5294 71.996 96.6756C73.1111 93.7354 74.798 91.0454 76.9592 88.7614C81.4305 83.8429 85.097 81.2942 87.6457 77.9408C89.7899 74.8112 91.0701 71.1712 91.3569 67.3884C91.6571 65.2998 91.8214 63.1938 91.8487 61.0839V60.4132H92.117C95.0347 60.1804 97.9155 59.6103 100.702 58.7141C102.932 58.1343 104.94 56.9048 106.47 55.1817C107.11 54.1643 107.522 53.0202 107.677 51.8282C108.157 46.0593 107.842 40.2517 106.738 34.5689C105.755 29.6058 104.145 24.8214 102.893 19.5006C101.998 15.5914 100.663 11.7963 98.9134 8.18812C97.5835 5.57223 95.5564 3.37488 93.056 1.83884C90.665 0.944581 88.0544 0.819522 85.5889 1.48113C81.3395 2.39706 77.1909 3.73 73.2033 5.46061C71.7666 3.58599 69.7308 2.26037 67.4353 1.7047C64.3384 1.06106 61.1423 1.06106 58.0455 1.7047C55.6158 2.48198 53.5201 4.05769 52.0986 6.17602C51.6964 6.83316 51.3808 7.53951 51.1597 8.27754C50.6651 7.26379 50.0657 6.30467 49.3711 5.4159C48.1583 4.09524 46.6146 3.12271 44.8998 2.59896C43.6807 2.33718 42.4353 2.21714 41.1886 2.24126C39.9705 2.18964 38.7513 2.31006 37.5668 2.59896C35.1459 2.84058 32.8244 3.68618 30.8151 5.05819C28.6634 6.67566 27.2213 9.06321 26.791 11.7205C25.2788 10.8063 23.55 10.3123 21.7831 10.2896C20.2334 10.3505 18.7124 10.7269 17.3132 11.3958C15.9139 12.0646 14.6658 13.0119 13.6453 14.1797C11.4335 16.4541 10.198 19.5027 10.2023 22.6752V24.2402C8.56038 24.6827 6.95967 25.2661 5.41803 25.984C4.00314 26.7299 2.8142 27.8416 1.97512 29.2033C1.39091 30.2358 1.12636 31.4185 1.21499 32.6015C1.39153 34.6207 1.72037 36.6235 2.19868 38.5931C2.6011 41.0523 3.09295 43.5116 3.62951 45.9261C4.83676 51.5152 6.26759 57.0597 7.38542 62.6488C7.96669 65.2422 8.59267 67.9697 9.3528 70.6525C9.84464 72.4857 10.3812 74.2743 11.0072 75.9734C11.4537 77.3657 12.1177 78.6786 12.9746 79.8634C13.6462 80.8298 14.5342 81.626 15.5679 82.1885C16.5742 82.7041 17.7306 82.8467 18.832 82.5909L19.7263 82.2779C19.8629 82.4527 20.0124 82.6171 20.1734 82.7698C22.2281 84.4751 24.1698 86.3122 25.9861 88.2695C26.915 89.3412 27.5878 90.6104 27.9535 91.9807C28.2714 92.9711 28.4959 93.989 28.6242 95.0212C29.0266 98.1958 28.6242 101.415 29.0266 103.964C29.0265 104.383 29.1899 104.786 29.4822 105.087C29.7744 105.387 30.1725 105.562 30.5916 105.574C30.7972 105.586 31.0031 105.557 31.1976 105.489C31.3921 105.422 31.5714 105.316 31.7251 105.179C31.8788 105.042 32.0039 104.876 32.0933 104.69C32.1827 104.505 32.2346 104.304 32.246 104.098C33.099 100.358 33.5191 96.5322 33.4979 92.6961C33.2198 89.6804 31.9088 86.8532 29.7867 84.6924C29.1458 84.1613 28.4739 83.6686 27.7746 83.2169C26.2544 82.3226 24.6447 81.6072 23.3033 80.7577C24.025 80.3397 24.7716 79.9664 25.539 79.6398L50.5784 70.6972C50.9282 70.5727 51.2143 70.3143 51.3736 69.9789C51.5329 69.6435 51.5525 69.2585 51.4279 68.9087C51.3034 68.5588 51.045 68.2728 50.7096 68.1135C50.3742 67.9542 49.9892 67.9346 49.6394 68.0591L24.1529 75.4368C20.7547 76.4205 18.4743 81.4731 16.1045 74.4531C15.5679 72.8434 15.0761 71.1443 14.5842 69.4452C13.9135 66.8519 13.2428 64.2138 12.6616 61.7098L6.26759 37.833C5.99931 36.6257 5.41803 34.8372 5.14976 33.1381C4.94606 32.4372 4.94606 31.6928 5.14976 30.9919C5.60253 30.1604 6.28566 29.4773 7.11714 29.0245C8.30635 28.3519 9.56589 27.8121 10.873 27.4148C11.2748 28.6704 11.799 29.8835 12.438 31.0366C14.8082 35.435 18.4776 38.9951 22.9456 41.2312C24.6719 41.8576 26.5174 42.0865 28.3444 41.9007C30.1715 41.7149 31.9331 41.1192 33.4979 40.1581C34.1757 39.7247 34.7615 39.162 35.2218 38.5022C35.6821 37.8425 36.008 37.0985 36.1807 36.3127C37.8749 37.47 39.7912 38.2623 41.8079 38.6395C43.8246 39.0167 45.8977 38.9704 47.8956 38.5037C49.6847 38.2196 51.3626 37.4534 52.7491 36.2875C54.1356 35.1216 55.1783 33.6 55.7651 31.8861C56.0636 31.1921 56.3029 30.4742 56.4805 29.7399C58.2697 31.1939 60.3737 32.2097 62.625 32.7066C64.8763 33.2034 67.2125 33.1674 69.4474 32.6015C71.5657 31.916 73.4222 30.5962 74.7657 28.8208C76.1093 27.0454 76.875 24.9001 76.9592 22.6752C77.4911 17.6756 76.721 12.6233 74.7235 8.00926C77.8287 6.92983 81.0129 6.09268 84.2475 5.50532C86.3785 4.87931 88.6446 4.87931 90.7756 5.50532C93.3242 6.31016 97.7061 20.9761 97.7061 20.9761C99.2264 27.0571 100.881 32.2438 102.177 38.2354C103.152 42.3558 103.691 46.5669 103.787 50.7998ZM32.246 34.4348C32.2586 34.7816 32.1675 35.1242 31.9843 35.419C31.8011 35.7137 31.5341 35.947 31.2176 36.0892C29.9771 36.7459 28.5766 37.0397 27.1768 36.9369C25.777 36.8341 24.4345 36.3388 23.3033 35.5079C20.7045 33.5631 18.5416 31.0956 16.954 28.2644C15.8355 26.598 15.1585 24.6748 14.9867 22.6752C14.7892 20.7234 15.3495 18.7704 16.5516 17.2202C17.1151 16.3006 17.87 15.5131 18.765 14.9113C19.66 14.3095 20.6741 13.9075 21.7384 13.7326C22.6606 13.5705 23.6093 13.6546 24.4886 13.9765C25.3678 14.2984 26.1466 14.8466 26.7462 15.5658C27.243 18.6361 28.0984 21.6375 29.2949 24.5084C30.0366 26.4911 30.9182 28.4187 31.933 30.2764C32.1478 31.6532 32.1628 33.0537 31.9777 34.4348H32.246ZM52.2328 29.9635C51.8907 31.0021 51.2418 31.9128 50.3717 32.5753C49.5017 33.2378 48.4513 33.6211 47.359 33.6747C46.0807 33.9944 44.7486 34.0361 43.4527 33.797C42.1568 33.5579 40.9273 33.0435 39.8472 32.2885C37.6914 29.5922 35.9714 26.5748 34.7499 23.3459C34.3624 22.243 33.9153 21.1251 33.4085 19.9924C31.6647 15.5211 30.8151 11.0498 33.7662 8.76939C35.0544 7.71816 36.5964 7.02424 38.2375 6.75729C39.8025 6.4443 38.9977 6.13131 40.2496 6.0866C41.5801 5.98024 42.9189 6.05545 44.2291 6.31016C45.6571 6.69608 46.9254 7.52598 47.8509 8.67996C49.3727 11.0745 50.4905 13.7029 51.1597 16.4601C51.4703 18.1439 51.9036 19.8027 52.4563 21.4232C52.7246 22.5858 52.9035 23.48 52.9482 23.8377C53.2777 25.9614 52.9337 28.1348 51.9645 30.0529L52.2328 29.9635ZM71.9066 21.8704C71.5489 24.5979 70.7441 27.0571 68.419 27.7725C66.9003 28.1908 65.3065 28.2592 63.7576 27.9726C62.2087 27.6861 60.7449 27.052 59.4763 26.1181C58.3341 24.4992 57.3176 22.7951 56.4358 21.0208C55.7812 18.6866 55.0051 16.3882 54.1107 14.135C53.5198 12.2363 53.6963 10.1817 54.6026 8.41168C56.53 7.05002 58.7512 6.16156 61.086 5.81832C62.7092 5.3642 64.4259 5.3642 66.0492 5.81832C66.74 6.0364 67.3805 6.38991 67.9332 6.8582C68.486 7.32649 68.9399 7.9002 69.2685 8.54582C71.3799 12.6803 72.2053 17.3522 71.6383 21.9598L71.9066 21.8704Z" fill="black"/>
</g>
<defs>
<clipPath id="clip0_319_2435">
<rect width="107.312" height="107.312" fill="white" transform="translate(0.947021 0.318604)"/>
</clipPath>
</defs>
</svg>
