<svg width="39" height="38" viewBox="0 0 39 38" fill="none" xmlns="http://www.w3.org/2000/svg">
<path fill-rule="evenodd" clip-rule="evenodd" d="M28.7351 19.5193C28.7751 19.5593 35.2819 19.3675 36.465 19.2555C36.0263 19.6832 35.5618 20.0837 35.0741 20.4546C33.7951 21.4778 32.3083 22.5649 31.7567 23.0366C31.7186 23.0657 31.6867 23.1022 31.6628 23.1438C31.6389 23.1854 31.6236 23.2314 31.6176 23.279C31.6117 23.3266 31.6152 23.3749 31.6281 23.4211C31.641 23.4673 31.663 23.5105 31.6928 23.5482C31.7215 23.5858 31.7576 23.6172 31.7988 23.6405C31.84 23.6638 31.8855 23.6786 31.9326 23.6838C31.9797 23.689 32.0273 23.6847 32.0726 23.671C32.118 23.6573 32.1601 23.6345 32.1964 23.6041C32.8838 23.1405 34.9382 22.0773 36.3771 21.0222C37.0581 20.5808 37.6383 20.0006 38.0797 19.3195C38.1694 19.1324 38.2127 18.9264 38.2057 18.7191C38.1987 18.5117 38.1418 18.3091 38.0398 18.1284C37.8232 17.7677 37.5212 17.4657 37.1605 17.2491C36.6567 16.9264 36.1364 16.6303 35.6017 16.3618C34.8103 15.9541 34.0029 15.5784 33.2196 15.2267C32.9798 15.1148 32.652 14.851 32.3243 14.6991C32.1317 14.5959 31.9189 14.5359 31.7008 14.5233C31.5926 14.5212 31.4881 14.5621 31.4102 14.637C31.3322 14.712 31.2872 14.8148 31.2851 14.923C31.283 15.0311 31.3239 15.1356 31.3988 15.2136C31.4738 15.2915 31.5767 15.3365 31.6848 15.3386C31.8091 15.3696 31.9242 15.4299 32.0205 15.5145C32.3003 15.7143 32.5721 15.9541 32.7879 16.0741C33.3954 16.4258 34.0189 16.7935 34.6345 17.1852C35.25 17.5769 35.8495 17.9526 36.4011 18.3602L36.481 18.4402C36.481 18.4402 30.3978 18.4802 28.7911 18.3762C27.1843 18.2723 24.6903 18.1924 21.9245 18.1444C19.7662 18.1124 17.4 18.0965 15.0579 18.1364C9.21449 18.2244 3.49899 18.5041 1.32471 18.7919C1.27747 18.7972 1.23173 18.8117 1.19009 18.8346C1.14846 18.8575 1.11175 18.8884 1.08206 18.9255C1.02209 19.0005 0.99436 19.0962 1.00496 19.1916C1.01556 19.287 1.06362 19.3743 1.13858 19.4342C1.21354 19.4942 1.30924 19.5219 1.40464 19.5113C2.49179 19.4154 4.45824 19.3675 6.85635 19.3834C8.8228 19.3834 11.093 19.4314 13.4272 19.4634L17.8157 19.4874C19.7262 19.4954 21.5887 19.5033 23.2914 19.4954C25.4497 19.5273 27.3602 19.5033 28.7351 19.5193Z" fill="black"/>
</svg>
