<svg width="113" height="113" viewBox="0 0 113 113" fill="none" xmlns="http://www.w3.org/2000/svg">
<g clip-path="url(#clip0_288_365)">
<path fill-rule="evenodd" clip-rule="evenodd" d="M73.2582 9.33455C73.6315 11.2481 73.5382 12.975 75.3584 13.0217C77.1787 13.0684 76.992 11.6682 77.9721 9.38122C81.3326 8.77447 82.6394 9.05451 82.6394 7.42096C82.6394 5.78741 81.2392 5.36735 78.5789 4.43389C77.7854 0.420022 77.412 -0.233398 76.3386 -0.233398C75.2651 -0.233398 75.0317 0.466695 73.4448 3.64045C68.4975 4.43389 68.0775 4.94729 67.9374 5.92742C67.7974 6.90756 67.7041 7.93436 73.2582 9.33455Z" fill="#273526"/>
<path fill-rule="evenodd" clip-rule="evenodd" d="M100.935 64.8753C100.002 62.495 99.9553 60.7214 98.2751 60.9081C96.5949 61.0948 97.0616 62.215 96.3149 65.1554H95.8948C89.1272 67.0223 89.4539 67.8624 89.5006 68.5625C89.5473 69.2626 90.3407 70.3361 96.1748 70.7561C97.715 77.3837 99.0686 76.8703 99.6753 76.8236C100.282 76.7769 101.496 76.0768 101.869 70.2427V70.0094C106.536 68.6558 107.656 68.7025 107.61 66.9756C107.563 65.2487 107.003 65.3421 100.935 64.8753Z" fill="#273526"/>
<path fill-rule="evenodd" clip-rule="evenodd" d="M24.6719 37.3384C23.2537 37.415 21.8544 37.698 20.518 38.1785C19.9055 38.4541 19.369 38.874 18.9544 39.4024C18.5399 39.9308 18.2596 40.5518 18.1376 41.2122C17.7473 43.4466 17.5599 45.7117 17.5776 47.9798C17.5776 52.9271 17.2509 57.8745 17.2975 62.8685C17.2975 66.2289 17.2975 69.5893 17.7176 72.9031C18.0443 77.5704 17.7176 88.7719 17.9976 93.6259C17.9417 94.4495 17.9417 95.276 17.9976 96.0996C18.0384 96.6227 18.2206 97.1248 18.5248 97.5523C18.829 97.9798 19.2437 98.3166 19.7245 98.5266C22.2383 99.0687 24.8085 99.3038 27.3789 99.2267C35.3599 99.2267 48.335 98.9466 53.469 98.8066L67.2375 98.1532C67.2375 98.1532 69.9446 98.1532 70.9247 97.9198C71.4624 97.8717 71.9678 97.6422 72.3579 97.2691C72.748 96.8959 72.9997 96.4012 73.0717 95.8662C73.1544 94.3115 73.1544 92.7536 73.0717 91.1989C72.7916 87.5584 72.1849 83.4512 71.8115 80.7442C71.7882 80.5108 71.7189 80.2843 71.6075 80.0779C71.4961 79.8714 71.3449 79.6892 71.1626 79.5416C70.9803 79.394 70.7705 79.284 70.5454 79.2181C70.3203 79.1521 70.0844 79.1314 69.8512 79.1573C69.3759 79.2158 68.9428 79.4593 68.6457 79.8349C68.3487 80.2106 68.2116 80.6882 68.2644 81.1642C68.2644 83.4512 68.8711 86.8117 69.0578 90.0321V93.5326L67.1442 93.9526H53.469C49.5485 93.9526 41.2407 93.9526 34.0064 93.6726C29.7592 93.6726 25.932 93.6726 23.8317 93.3925C23.8317 88.3985 23.8317 77.0103 23.5517 72.3897C23.2717 69.1693 23.1783 65.9489 23.085 62.7284V47.9331C22.9916 41.1189 19.1178 43.0325 33.5864 41.7256L62.1502 39.8587C62.5711 39.8278 62.9624 39.6309 63.2381 39.3114C63.5138 38.9919 63.6513 38.576 63.6204 38.1551C63.5895 37.7343 63.3926 37.3429 63.0731 37.0672C62.7536 36.7915 62.3377 36.654 61.9168 36.685L33.1196 37.3384H24.6719Z" fill="#273526"/>
<path fill-rule="evenodd" clip-rule="evenodd" d="M11.6033 50.3603C11.6033 43.6861 12.1634 37.0585 12.8635 30.431H13.4236C15.8734 29.9969 18.3566 29.7783 20.8446 29.7775C22.4781 29.7775 24.1583 29.7775 25.8386 29.4975C38.3002 28.004 33.1195 29.7309 37.3201 23.9434C37.9114 23.045 38.6535 22.2555 39.5137 21.6098C40.453 20.8163 41.5283 20.1995 42.6875 19.7895C43.3632 19.4884 44.0947 19.3328 44.8344 19.3328C45.5742 19.3328 46.3057 19.4884 46.9814 19.7895C49.9633 21.5726 52.1758 24.4006 53.1889 27.7239C53.2484 27.9518 53.3526 28.1655 53.4956 28.3527C53.6385 28.5398 53.8173 28.6966 54.0215 28.8139C54.2257 28.9312 54.4512 29.0067 54.6849 29.0359C54.9186 29.0651 55.1557 29.0475 55.3825 28.9841C55.8015 28.8166 56.1434 28.4994 56.3417 28.094C56.5401 27.6887 56.5808 27.2241 56.456 26.7905C56.1246 24.0382 55.0923 21.417 53.4579 19.1779C51.8235 16.9387 49.6417 15.1566 47.1214 14.0021C45.847 13.6279 44.509 13.5218 43.1916 13.6905C41.8742 13.8592 40.606 14.299 39.467 14.9822C38.1238 15.7695 36.9243 16.7796 35.9199 17.9693C34.8939 19.207 34.0887 20.6122 33.5396 22.1232C33.2106 23.0254 32.9301 23.9446 32.6995 24.8769C30.8003 24.3831 28.8652 24.0397 26.912 23.8501C25.7782 23.7568 24.6387 23.7568 23.5049 23.8501C22.3437 23.9458 21.19 24.1173 20.0511 24.3635C9.54972 26.7905 8.28955 24.3635 6.04925 54.0008C5.72254 57.7813 5.58252 61.5618 5.58252 65.3423V76.6372C6.09592 85.4117 7.02938 94.1395 8.10286 102.867C8.12026 103.105 8.18532 103.336 8.29415 103.548C8.40297 103.76 8.55333 103.948 8.73627 104.1C8.91921 104.253 9.13097 104.367 9.35893 104.436C9.58689 104.504 9.82638 104.527 10.0631 104.501C10.5249 104.443 10.9485 104.215 11.2507 103.861C11.5529 103.507 11.7119 103.052 11.6967 102.587C11.2299 92.1792 11.2299 81.7712 11.37 71.3164V58.9014C11.5567 56.0077 11.5567 53.114 11.6033 50.3603Z" fill="#273526"/>
<path fill-rule="evenodd" clip-rule="evenodd" d="M82.313 66.042C82.2739 65.8364 82.1944 65.6405 82.0793 65.4656C81.9641 65.2908 81.8154 65.1404 81.6419 65.0233C81.4684 64.9062 81.2733 64.8245 81.0681 64.7831C80.8629 64.7417 80.6515 64.7412 80.4461 64.7819C80.0366 64.8719 79.6774 65.1159 79.4428 65.4634C79.2082 65.8109 79.1163 66.2353 79.1859 66.6488C79.5917 71.7258 79.6697 76.8238 79.4193 81.9108C79.4193 85.2713 79.4193 88.6317 79.1859 91.9455C79.0485 95.5564 78.5956 99.1483 77.8324 102.68C77.6975 103.138 77.7432 103.631 77.9603 104.056C78.1773 104.482 78.5491 104.808 78.9992 104.967C79.4511 105.1 79.9369 105.053 80.3547 104.836C80.7725 104.618 81.0897 104.247 81.2395 103.8C82.9884 99.608 84.2264 95.2203 84.9267 90.732C85.2406 88.8182 85.4122 86.8838 85.4401 84.9446C85.5559 83.0172 85.5559 81.0845 85.4401 79.1571C84.7717 74.7046 83.7256 70.3171 82.313 66.042Z" fill="#273526"/>
<path fill-rule="evenodd" clip-rule="evenodd" d="M75.8717 104.874C72.2173 105.639 68.4969 106.045 64.7636 106.087C59.0228 106.087 53.142 106.087 47.6346 105.854C44.7876 105.854 41.9872 105.854 39.1868 106.181C34.9863 106.414 30.7857 106.834 26.5851 106.974H17.6239C17.4153 106.948 17.2036 106.964 17.0011 107.02C16.7986 107.077 16.6093 107.173 16.4443 107.303C16.2793 107.434 16.1418 107.595 16.0399 107.779C15.9379 107.963 15.8735 108.165 15.8504 108.374C15.8227 108.786 15.9517 109.192 16.2114 109.513C16.4711 109.833 16.8423 110.043 17.2505 110.101C22.317 110.945 27.4288 111.491 32.5593 111.735C34.6129 111.735 36.6198 111.735 38.6734 112.015H47.728C53.3754 111.735 59.3028 111.641 65.1836 110.941C69.1255 110.477 73.016 109.649 76.8052 108.468C77.269 108.337 77.6621 108.028 77.8983 107.608C78.1345 107.188 78.1946 106.691 78.0653 106.227C78.0105 105.994 77.9101 105.774 77.7701 105.58C77.6301 105.386 77.4532 105.221 77.2494 105.095C77.0456 104.97 76.819 104.885 76.5826 104.847C76.3462 104.809 76.1046 104.818 75.8717 104.874Z" fill="#273526"/>
<path fill-rule="evenodd" clip-rule="evenodd" d="M91.1808 49.8C91.4608 49.8 91.6475 50.4534 91.9743 50.7801C92.344 51.1668 92.7686 51.4971 93.2344 51.7603C93.8679 51.9883 94.5612 51.9883 95.1947 51.7603C95.6046 51.6539 95.9872 51.4615 96.3171 51.196C96.647 50.9304 96.9167 50.5978 97.1083 50.2201C97.6517 49.2112 97.9701 48.0966 98.0417 46.953C98.1611 45.0879 98.1611 43.2172 98.0417 41.3522C98.0417 39.1586 98.0417 36.9649 97.5283 34.818C96.8749 29.7773 95.7548 24.8767 94.8213 19.8827C94.6911 19.4613 94.4087 19.1035 94.029 18.8791C93.6493 18.6547 93.1996 18.5799 92.7677 18.6692C92.39 18.7294 92.043 18.9134 91.7812 19.1921C91.5193 19.4709 91.3574 19.8287 91.3208 20.2094C86.9802 21.2362 82.5463 21.5629 78.1124 22.263C76.0588 22.6364 74.0052 23.1031 72.0449 23.6165C70.0735 24.1376 68.176 24.906 66.3975 25.9035C65.5221 26.3722 64.8191 27.108 64.3906 28.0037C64.2539 28.4394 64.2382 28.904 64.3451 29.3479C64.4519 29.7918 64.6774 30.1983 64.9973 30.5241L66.3975 31.5976L71.0648 35.1447C71.0648 35.1447 70.6914 35.1447 70.5981 35.5181C68.2644 39.1586 65.9308 42.8457 63.5971 46.4395C62.0102 48.7732 60.3767 51.1068 58.6498 53.3005C58.6498 53.3005 57.5763 55.4941 56.5962 56.8476C54.8693 55.6808 53.1891 54.4206 51.4155 53.2538C50.3818 52.5513 49.3063 51.9122 48.1951 51.3402C47.0516 50.6741 45.8668 50.0817 44.6479 49.5666C44.22 49.3843 43.7596 49.2904 43.2944 49.2904C42.8292 49.2904 42.3689 49.3843 41.9409 49.5666C40.9092 50.1815 40.0059 50.9898 39.2805 51.947C38.0204 53.5338 36.9469 55.6808 36.0134 56.941L25.232 73.1365C24.9941 73.478 24.8999 73.8993 24.9698 74.3097C25.0396 74.72 25.2679 75.0865 25.6054 75.3301C25.9543 75.5706 26.383 75.6661 26.801 75.5964C27.219 75.5268 27.5936 75.2974 27.8457 74.9567C29.3392 72.9653 30.895 71.0051 32.513 69.0759C35.08 66.1822 37.787 63.3818 40.2607 60.6748C41.1474 59.6947 42.2209 58.1078 43.3411 56.7076L44.1345 55.8675C44.7413 56.2875 45.3947 56.8943 45.5347 56.9876L55.1026 63.1485C55.8171 63.4894 56.6261 63.5781 57.3974 63.4001C58.1688 63.2221 58.8571 62.7879 59.3499 62.1683C60.7432 60.4551 62.0366 58.663 63.2237 56.8009C64.8106 54.3273 66.3508 51.8069 67.891 49.1933C70.038 45.3661 71.9516 41.4922 74.0052 37.665C74.108 37.4295 74.161 37.1753 74.161 36.9183C74.161 36.6613 74.108 36.4071 74.0052 36.1715H74.3786C74.675 35.8741 74.8414 35.4713 74.8414 35.0514C74.8414 34.6314 74.675 34.2286 74.3786 33.9312L70.9714 30.104C72.0449 29.824 73.1184 29.6373 73.6318 29.544C76.8056 28.6105 80.0727 27.9104 83.3398 27.0236C86.0867 26.2585 88.7834 25.3233 91.4142 24.2232L92.0209 41.959V45.086C91.424 44.7352 90.8614 44.3289 90.3407 43.8725C89.2557 43.0219 88.2554 42.0684 87.3536 41.0255C87.2415 40.8548 87.0956 40.7088 86.9249 40.5967C86.7542 40.4846 86.5623 40.4087 86.361 40.3737C86.1598 40.3387 85.9536 40.3454 85.755 40.3933C85.5565 40.4412 85.3698 40.5292 85.2067 40.6521C84.9135 40.8519 84.704 41.1525 84.6179 41.4967C84.5319 41.8409 84.5753 42.2047 84.7399 42.519C80.5861 47.8397 76.3855 53.2071 71.9982 58.3878C69.1045 61.7949 66.1641 65.1087 62.9904 68.2825C54.4492 76.5903 59.3032 74.2099 50.2487 69.5893C49.1536 69.0418 48.0138 68.589 46.8415 68.2358C46.41 68.1248 45.9589 68.1134 45.5223 68.2023C45.0856 68.2912 44.6749 68.4783 44.3212 68.7492C41.4996 71.077 38.8189 73.5706 36.2935 76.2169C32.6063 80.1374 29.1058 84.2913 25.512 88.1651C25.2156 88.4626 25.0492 88.8654 25.0492 89.2853C25.0492 89.7052 25.2156 90.108 25.512 90.4054C25.8228 90.6941 26.2313 90.8546 26.6555 90.8546C27.0797 90.8546 27.4882 90.6941 27.799 90.4054C31.6262 86.8583 35.4534 83.0778 39.5139 79.5306C41.6125 77.6572 43.8092 75.8967 46.0948 74.2566C46.6082 74.49 47.4016 74.63 47.495 74.7233C49.3152 75.7501 51.2288 77.3837 53.1424 78.6439C54.1845 79.3361 55.3147 79.8855 56.5028 80.2774C57.2578 80.5443 58.0815 80.5443 58.8365 80.2774C59.7556 79.7251 60.6296 79.1008 61.4502 78.4105L67.331 72.483C70.4114 69.0292 73.2584 65.3888 76.0121 61.7016C79.7926 56.5209 83.3398 51.1535 86.9336 45.8328C87.2136 46.1595 87.4003 46.5329 87.6803 46.8596C88.769 47.9292 89.9393 48.9123 91.1808 49.8Z" fill="#273526"/>
</g>
<defs>
<clipPath id="clip0_288_365">
<rect width="112.015" height="112.015" fill="white" transform="translate(0.44873)"/>
</clipPath>
</defs>
</svg>
