<svg width="425" height="351" viewBox="0 0 425 351" fill="none" xmlns="http://www.w3.org/2000/svg">
<path d="M381.852 292.363C364.823 320.545 336.264 336.191 302.46 343.815C268.653 351.44 229.651 351.028 191.831 347.131C154.016 343.234 117.414 335.857 88.4163 329.57C83.0475 328.406 77.9375 327.279 73.1284 326.219C64.9555 324.416 57.6515 322.805 51.4227 321.53C46.4743 320.517 42.1948 319.714 38.6887 319.194C35.2616 318.686 32.5411 318.443 30.6485 318.549L23.0978 315.508C8.98694 304.518 2.32641 283.561 0.956596 257.682C-0.413559 231.796 3.51742 201.121 10.4393 170.925C17.3604 140.732 27.2657 111.042 37.8276 87.1347C43.1086 75.1807 48.5504 64.6798 53.8608 56.2874C59.1772 47.8856 64.3394 41.6335 69.0502 38.1395C73.7726 34.6368 81.1299 31.2455 90.5538 28.0337C99.9687 24.825 111.411 21.8069 124.279 19.0371C150.013 13.4977 181.417 8.9577 213.635 5.86923C245.853 2.78084 278.875 1.14489 307.845 1.41096C336.829 1.67714 361.715 3.84701 377.683 8.35143C393.499 12.8128 405.18 26.952 412.919 47.2483C420.654 67.5349 424.41 93.8805 424.43 122.563C424.469 179.932 409.562 246.501 381.852 292.363Z" stroke="black"/>
</svg>
