<svg width="277" height="201" viewBox="0 0 277 201" fill="none" xmlns="http://www.w3.org/2000/svg">
<path d="M245.913 165.369C235.15 180.999 217.139 189.924 195.464 194.402C173.801 198.877 148.767 198.845 124.391 196.808C100.034 194.772 76.4581 190.745 57.7385 187.294C54.2863 186.657 50.9921 186.039 47.8873 185.456C42.5962 184.463 37.8551 183.573 33.8195 182.873C27.8728 181.84 23.139 181.155 20.3517 181.229L16.0608 179.729C7.87627 173.988 3.80741 162.886 3.06456 148.419C2.31915 133.902 4.96327 116.557 9.56135 99.3594C14.1544 82.1805 20.6621 65.2778 27.5499 51.6776C30.9938 44.8773 34.5158 38.9365 37.9189 34.2133C41.3466 29.456 44.5556 26.0731 47.3367 24.2391C50.1811 22.3633 54.7524 20.4499 60.8189 18.5813C66.8451 16.7251 74.1973 14.9573 82.499 13.3176C99.0997 10.0388 119.377 7.29589 140.197 5.37568C161.014 3.4557 182.333 2.36191 201.012 2.37223C219.742 2.38259 235.649 3.50461 245.732 5.94761C255.158 8.23143 262.264 15.6682 267.028 26.8989C271.794 38.1342 274.078 52.893 273.951 69.1353C273.699 101.639 263.805 139.385 245.913 165.369Z" stroke="#FF908D" stroke-width="4.46077"/>
</svg>
