<svg width="276" height="201" viewBox="0 0 276 201" fill="none" xmlns="http://www.w3.org/2000/svg">
<path d="M245.516 165.76C234.754 181.39 216.743 190.314 195.068 194.792C173.405 199.267 148.37 199.236 123.994 197.198C99.6372 195.162 76.0616 191.136 57.342 187.684C53.8898 187.048 50.5956 186.43 47.4908 185.847C42.1997 184.854 37.4586 183.964 33.423 183.263C27.4764 182.231 22.7425 181.545 19.9552 181.619L15.6643 180.12C7.47978 174.379 3.41092 163.276 2.66808 148.809C1.92267 134.292 4.56679 116.947 9.16487 99.7498C13.7579 82.5709 20.2656 65.6682 27.1534 52.068C30.5973 45.2677 34.1193 39.3268 37.5225 34.6036C40.9502 29.8464 44.1591 26.4635 46.9402 24.6295C49.7846 22.7537 54.3559 20.8403 60.4224 18.9717C66.4487 17.1155 73.8008 15.3476 82.1025 13.708C98.7032 10.4292 118.981 7.68627 139.801 5.76606C160.618 3.84608 181.937 2.75229 200.615 2.76261C219.345 2.77297 235.252 3.89499 245.335 6.33799C254.761 8.62181 261.868 16.0586 266.632 27.2893C271.397 38.5246 273.681 53.2834 273.555 69.5256C273.302 102.029 263.409 139.775 245.516 165.76Z" stroke="#FF908D" stroke-width="4.46077"/>
</svg>
