<svg width="402" height="207" viewBox="0 0 402 207" fill="none" xmlns="http://www.w3.org/2000/svg">
<path d="M32.0432 5.24292H55.5145" stroke="#FF908D" stroke-width="2.38991" stroke-linecap="round"/>
<path d="M71.4751 5.24292H94.9464" stroke="#FF908D" stroke-width="2.38991" stroke-linecap="round"/>
<path d="M112.785 3.29724C119.403 2.91623 125.825 2.64868 132.501 2.64868" stroke="#FF908D" stroke-width="2.38991" stroke-linecap="round"/>
<path d="M149.4 2.64868H172.871" stroke="#FF908D" stroke-width="2.38991" stroke-linecap="round"/>
<path d="M179.443 2.64868C186.386 3.84784 193.323 3.68291 200.098 5.24293" stroke="#FF908D" stroke-width="2.38991" stroke-linecap="round"/>
<path d="M212.303 5.24292H233.897" stroke="#FF908D" stroke-width="2.38991" stroke-linecap="round"/>
<path d="M247.041 5.24292H265.818" stroke="#FF908D" stroke-width="2.38991" stroke-linecap="round"/>
<path d="M283.656 3.29712H303.372" stroke="#FF908D" stroke-width="2.38991" stroke-linecap="round"/>
<path d="M322.148 2H347.497" stroke="#FF908D" stroke-width="2.38991" stroke-linecap="round"/>
<path d="M363.458 3.94556C371.541 4.45316 374.868 8.21087 381.296 10.4312" stroke="#FF908D" stroke-width="2.38991" stroke-linecap="round"/>
<path d="M387.868 20.8083C387.868 25.6755 389.746 30.3011 389.746 35.0767" stroke="#FF908D" stroke-width="2.38991" stroke-linecap="round"/>
<path d="M392.563 46.7507V62.9648" stroke="#FF908D" stroke-width="2.38991" stroke-linecap="round"/>
<path d="M394.44 77.2332V93.4472" stroke="#FF908D" stroke-width="2.38991" stroke-linecap="round"/>
<path d="M399.135 103.824V125.227" stroke="#FF908D" stroke-width="2.38991" stroke-linecap="round"/>
<path d="M399.135 133.01V147.926" stroke="#FF908D" stroke-width="2.38991" stroke-linecap="round"/>
<path d="M400.074 157.006C400.074 163.087 399.135 169.118 399.135 175.166" stroke="#FF908D" stroke-width="2.38991" stroke-linecap="round"/>
<path d="M398.196 191.38C396.041 191.546 395.171 193.454 393.449 194.227C391.175 195.248 388.513 196.547 385.991 197.217C381.12 198.511 376.814 201.558 371.908 202.406" stroke="#FF908D" stroke-width="2.38991" stroke-linecap="round"/>
<path d="M360.641 203.054C353.058 203.054 345.599 203.703 338.109 203.703" stroke="#FF908D" stroke-width="2.38991" stroke-linecap="round"/>
<path d="M294.922 203.703H321.21" stroke="#FF908D" stroke-width="2.38991" stroke-linecap="round"/>
<path d="M257.368 203.703H282.717" stroke="#FF908D" stroke-width="2.38991" stroke-linecap="round"/>
<path d="M219.814 203.703H243.285" stroke="#FF908D" stroke-width="2.38991" stroke-linecap="round"/>
<path d="M174.749 203.703H205.731" stroke="#FF908D" stroke-width="2.38991" stroke-linecap="round"/>
<path d="M129.684 202.406H155.033" stroke="#FF908D" stroke-width="2.38991" stroke-linecap="round"/>
<path d="M123.112 202.406C118.272 202.582 113.709 204.351 109.029 204.351" stroke="#FF908D" stroke-width="2.38991" stroke-linecap="round"/>
<path d="M96.824 204.351C86.7784 204.785 76.8515 205 66.7808 205" stroke="#FF908D" stroke-width="2.38991" stroke-linecap="round"/>
<path d="M56.4532 204.352C49.2299 203.936 42.1128 201.757 34.8596 201.757" stroke="#FF908D" stroke-width="2.38991" stroke-linecap="round"/>
<path d="M28.2879 199.812C21.8247 197.26 15.6228 193.008 10.4497 189.435" stroke="#FF908D" stroke-width="2.38991" stroke-linecap="round"/>
<path d="M7.6331 179.706C7.2413 176.729 5.79656 173.926 3.87769 171.275" stroke="#FF908D" stroke-width="2.38991" stroke-linecap="round"/>
<path d="M3.8777 160.898C3.8777 157.764 2.63334 154.88 2 151.818" stroke="#FF908D" stroke-width="2.38991" stroke-linecap="round"/>
<path d="M5.75539 137.549C5.75539 135.275 4.78459 132.608 3.87769 130.415" stroke="#FF908D" stroke-width="2.38991" stroke-linecap="round"/>
<path d="M5.7555 119.39C5.7555 114.605 7.01888 109.037 4.81665 104.473" stroke="#FF908D" stroke-width="2.38991" stroke-linecap="round"/>
<path d="M6.69422 90.8531C6.69422 86.5018 5.75537 82.1943 5.75537 77.8818" stroke="#FF908D" stroke-width="2.38991" stroke-linecap="round"/>
<path d="M6.69434 53.885V61.6678" stroke="#FF908D" stroke-width="2.38991" stroke-linecap="round"/>
<path d="M4.81665 28.5911V40.9137" stroke="#FF908D" stroke-width="2.38991" stroke-linecap="round"/>
<path d="M4.81665 18.2142C5.41926 14.0513 13.5143 9.07719 18.8994 7.83716" stroke="#FF908D" stroke-width="2.38991" stroke-linecap="round"/>
</svg>
