<svg width="163" height="161" viewBox="0 0 163 161" fill="none" xmlns="http://www.w3.org/2000/svg">
<path fill-rule="evenodd" clip-rule="evenodd" d="M64.8332 51.3543C71.7009 60.8314 71.6797 75.5549 65.452 80.0679C59.2242 84.581 46.7821 81.1325 39.9143 71.6555C27.124 54.0055 27.5538 43.9733 33.7816 39.4602C41.626 33.7756 53.8192 36.1557 64.8332 51.3543ZM57.1705 96.4632C62.6604 106.8 60.6016 121.378 53.8092 124.986C47.0167 128.594 35.1716 123.456 29.6817 113.12C24.1917 102.784 25.7158 88.4889 32.5082 84.8812C39.3007 81.2735 51.6805 86.1268 57.1705 96.4632ZM73.0869 139.828C65.0834 133.795 66.6434 128.325 75.1506 110.623C76.6294 107.546 77.0313 104.135 77.4245 100.797C78.1021 95.0464 78.7541 89.5127 84.8445 86.278C92.8654 82.0178 102.44 85.8452 112.648 93.449C116.96 96.66 122.122 95.7536 126.909 94.913C132.265 93.9726 137.152 93.1146 139.851 98.197C144.939 110.762 137.272 114.046 127.238 118.345C121.502 120.803 114.992 123.592 109.648 128.636C93.0434 144.311 80.0231 145.056 73.0869 139.828ZM124.414 87.0634C116.733 87.4624 107.47 76.0177 106.863 64.3296C106.256 52.6415 114.377 42.1127 122.058 41.7138C129.739 41.3148 138.397 52.7909 139.004 64.479C139.611 76.1671 132.095 86.6644 124.414 87.0634ZM74.761 18.0429C82.051 15.5916 94.0522 24.1211 97.7825 35.2146C103.765 53.0055 98.6249 64.3157 89.4425 67.4033C82.1525 69.8547 73.7341 64.3811 66.7869 43.7207C63.0566 32.6273 67.471 20.4942 74.761 18.0429Z" fill="#6C8776" fill-opacity="0.1"/>
</svg>
