<svg width="127" height="128" viewBox="0 0 127 128" fill="none" xmlns="http://www.w3.org/2000/svg">
<g clip-path="url(#clip0_319_2424)">
<path fill-rule="evenodd" clip-rule="evenodd" d="M97.6478 29.2163C96.6471 21.6706 93.1742 14.6691 87.7722 9.30657C84.5704 6.92507 81.1588 4.83928 77.5797 3.07489C77.1301 2.92657 76.642 2.94652 76.206 3.13102C75.77 3.31553 75.4158 3.65205 75.2093 4.07804C75.0028 4.50403 74.9579 4.99052 75.083 5.44709C75.2082 5.90367 75.4949 6.29928 75.8898 6.56041C79.075 8.25904 82.1133 10.2198 84.9732 12.4224C89.8296 17.692 92.6233 24.5357 92.8421 31.6984C88.4636 31.9887 84.0706 31.9887 79.6921 31.6984C79.2762 27.7307 78.3166 23.8391 76.8404 20.1328C80.5899 20.1328 83.9698 20.1328 86.6104 19.7103C87.0668 19.6345 87.4816 19.3992 87.7808 19.0462C88.08 18.6932 88.2442 18.2455 88.2442 17.7827C88.2442 17.32 88.08 16.8723 87.7808 16.5193C87.4816 16.1663 87.0668 15.9309 86.6104 15.8551C83.4945 15.8551 79.3753 15.1158 74.8335 14.5877L72.9323 9.30657C72.7993 8.87238 72.4992 8.50882 72.0981 8.29589C71.697 8.08295 71.2277 8.03808 70.7935 8.17114C70.3593 8.3042 69.9958 8.60429 69.7828 9.0054C69.5699 9.40651 69.525 9.87578 69.6581 10.31L70.4502 14.0596C66.0657 13.5876 61.6571 13.376 57.2475 13.4258C58.992 9.92031 61.7044 6.98802 65.0635 4.97608C65.3804 4.83731 65.641 4.59533 65.8029 4.28954H67.3344C67.7826 4.33856 68.2319 4.20753 68.5835 3.92526C68.9351 3.643 69.1602 3.23263 69.2092 2.78443C69.2582 2.33622 69.1272 1.88691 68.8449 1.53532C68.5626 1.18372 68.1523 0.958662 67.7041 0.90964C50.8574 -1.30842 38.2884 8.62003 31.687 24.6217C29.1286 31.0677 28.8214 38.1886 30.815 44.8309C32.8087 51.4733 36.9865 57.248 42.6717 61.2197C48.1351 65.1386 54.6153 67.3938 61.3313 67.7133C68.0473 68.0328 74.7124 66.403 80.5231 63.0204C86.3338 59.6377 91.0422 54.6467 94.0807 48.6488C97.1191 42.6509 98.3579 35.9023 97.6478 29.2163ZM92.6836 35.8705C92.2603 39.0798 91.2772 42.19 89.779 45.0596C86.2376 46.2501 82.5304 46.8739 78.7944 46.9079C79.4777 43.8718 79.8668 40.7768 79.9562 37.666C84.2312 37.3264 88.4815 36.7268 92.6836 35.8705ZM35.4894 34.8142C38.5525 35.448 42.5133 36.0817 46.9494 36.6626C46.8315 40.0751 47.187 43.4874 48.0056 46.8023C44.4673 46.8023 41.1402 46.327 37.9715 45.9045C36.3172 42.4427 35.4686 38.651 35.4894 34.8142ZM53.2867 37.666C60.0214 38.1148 66.7785 38.1148 73.5133 37.666C73.5153 40.7595 73.2858 43.8487 72.8267 46.9079H53.9204C53.4389 43.8518 53.2268 40.7593 53.2867 37.666ZM71.7177 20.7137C72.5752 24.4436 73.0879 28.2443 73.2492 32.0681C63.1623 31.6456 55.9801 31.6456 53.6564 31.6456C53.9617 27.83 54.5086 24.0376 55.2935 20.2912C62.2117 20.3969 67.0703 20.4497 71.7177 20.4497V20.7137ZM59.0959 4.87046C55.7837 7.21943 53.1584 10.4099 51.4911 14.1124C48.5264 14.3378 45.58 14.7612 42.6717 15.3798C44.5607 12.5972 46.9866 10.2202 49.8071 8.38824C52.6276 6.5563 55.7857 5.30643 59.0959 4.71203V4.87046ZM39.8727 19.7103C43.0201 19.4953 46.1785 19.4953 49.3259 19.7103C48.1774 23.5251 47.4686 27.4586 47.2134 31.4343H35.7535C36.3393 27.2928 37.7393 23.3081 39.8727 19.7103ZM40.5593 50.3935C43.4639 51.1328 46.5269 51.8193 49.6956 52.3475C50.6317 54.7669 51.8741 57.0564 53.3923 59.1601C48.3053 57.6471 43.8185 54.582 40.5593 50.3935ZM61.0499 60.9556C58.6315 58.7972 56.8123 56.0502 55.7688 52.9812C61.0373 53.4961 66.3435 53.4961 71.6121 52.9812C71.2206 55.7906 70.2105 58.4782 68.6547 60.85C66.1511 61.346 63.586 61.4529 61.0499 61.1669V60.9556ZM74.6751 58.7904C79.6921 48.7563 72.9852 54.3015 85.8182 50.5519C82.7694 54.0997 78.9608 56.9155 74.6751 58.7904Z" fill="black"/>
<path fill-rule="evenodd" clip-rule="evenodd" d="M35.2785 95.3355C34.6448 96.1277 34.9617 97.3951 31.4233 97.3951C27.885 97.3951 28.8884 94.2793 26.1422 94.4377C25.2444 94.4377 24.8748 95.3355 25.0332 96.2333C25.9692 98.1434 27.4602 99.7264 29.3109 100.775C30.1686 101.106 31.0851 101.256 32.0034 101.218C32.9218 101.179 33.8224 100.952 34.6494 100.551C35.4765 100.15 36.2122 99.5832 36.811 98.8859C37.4098 98.1885 37.8589 97.3755 38.1303 96.4973C38.1303 96.0749 38.3944 96.1277 38.3944 95.5996C38.3652 95.2249 38.2037 94.8728 37.9389 94.6062C37.6741 94.3395 37.3231 94.1757 36.9486 94.144C36.5741 94.1122 36.2006 94.2146 35.8947 94.4329C35.5887 94.6512 35.3703 94.9711 35.2785 95.3355Z" fill="black"/>
<path fill-rule="evenodd" clip-rule="evenodd" d="M99.3383 94.8074C98.7045 95.5996 99.0214 96.8671 95.5359 96.8671C92.0504 96.8671 92.9481 93.7512 89.9907 93.9097C89.1458 93.9097 88.7233 94.8074 88.8817 95.7052C89.8451 97.6135 91.352 99.1938 93.2122 100.247C94.0837 100.574 95.0137 100.716 95.9431 100.664C96.8725 100.612 97.7809 100.367 98.6104 99.9446C99.44 99.5224 100.173 98.9321 100.762 98.2113C101.351 97.4906 101.783 96.6551 102.032 95.758V94.8602C101.894 94.6281 101.7 94.435 101.466 94.2991C101.233 94.1632 100.969 94.0891 100.7 94.0838C100.43 94.0786 100.163 94.1422 99.925 94.2689C99.6867 94.3955 99.4848 94.5809 99.3383 94.8074Z" fill="black"/>
<path fill-rule="evenodd" clip-rule="evenodd" d="M122.1 115.192C118.319 110.747 113.144 107.712 107.418 106.584C118.825 97.6064 117.188 74.8977 102.718 72.0988C102.275 72.0423 101.828 72.1527 101.462 72.4084C101.096 72.6641 100.839 73.0468 100.74 73.4819C100.641 73.9171 100.708 74.3735 100.927 74.7621C101.146 75.1508 101.502 75.4439 101.926 75.5843C104.21 76.2993 106.221 77.6931 107.693 79.58C109.165 81.4669 110.027 83.7574 110.164 86.1465C108.902 86.3194 107.618 86.2102 106.403 85.8266C105.189 85.4431 104.074 84.7947 103.141 83.9284C101.292 81.0238 101.767 81.9744 101.292 80.2316C100.817 78.4889 98.2291 76.9045 95.5357 79.4923C94.1627 80.8654 93.6346 82.8194 90.2547 84.5093C88.482 85.5546 86.4963 86.1864 84.4455 86.3577C81.224 86.6746 81.9105 86.3577 80.6431 86.3577C80.8837 84.414 81.508 82.5374 82.4798 80.8369C83.4516 79.1365 84.7515 77.646 86.3041 76.4521C87.8567 75.2581 89.631 74.3846 91.524 73.882C93.417 73.3795 95.391 73.258 97.3313 73.5246C97.5505 73.5825 97.7796 73.5926 98.0031 73.5543C98.2266 73.516 98.4392 73.4302 98.6267 73.3027C98.8141 73.1752 98.972 73.0089 99.0897 72.8151C99.2074 72.6213 99.2821 72.4046 99.3088 72.1794C99.3356 71.9543 99.3136 71.726 99.2446 71.5101C99.1755 71.2941 99.0609 71.0955 98.9084 70.9277C98.756 70.7598 98.5694 70.6267 98.3611 70.5371C98.1528 70.4476 97.9277 70.4039 97.701 70.4088C74.3586 67.557 68.2853 97.2367 83.0724 107.376C80.0715 108.132 77.1916 109.305 74.517 110.862C71.7076 112.278 69.3691 114.479 67.785 117.197C66.2009 119.915 65.4391 123.035 65.592 126.177C65.592 126.597 65.7589 127 66.056 127.297C66.3531 127.595 66.7561 127.761 67.1763 127.761C67.5965 127.761 67.9995 127.595 68.2966 127.297C68.5937 127 68.7606 126.597 68.7606 126.177C69.4081 123.351 71.1076 120.877 73.5136 119.259C77.7745 115.433 82.5578 112.232 87.7197 109.753C92.7355 111.357 98.1423 111.245 103.088 109.436C108.229 111.822 112.969 114.994 117.135 118.836C119.561 120.435 121.266 122.917 121.888 125.755C121.888 126.175 122.055 126.578 122.352 126.875C122.65 127.172 123.053 127.339 123.473 127.339C123.893 127.339 124.296 127.172 124.593 126.875C124.89 126.578 125.057 126.175 125.057 125.755C125.346 123.885 125.232 121.975 124.722 120.153C124.212 118.331 123.318 116.64 122.1 115.192ZM90.149 103.838C87.2106 102.903 84.669 101.012 82.9276 98.4671C81.1863 95.922 80.345 92.8682 80.5375 89.7904C83.4753 90.8388 86.647 91.0482 89.6972 90.3953C92.7474 89.7424 95.5554 88.2528 97.8066 86.0936C99.3189 87.7747 101.248 89.0264 103.4 89.7219C105.551 90.4175 107.849 90.5322 110.059 90.0545C109.055 101.039 101.873 106.796 90.149 103.838Z" fill="black"/>
<path fill-rule="evenodd" clip-rule="evenodd" d="M52.0721 110.175C49.3009 108.574 46.3125 107.382 43.1999 106.637C54.607 97.712 53.0755 75.2674 38.4997 72.2044C38.2743 72.1524 38.0409 72.1452 37.8127 72.1834C37.5846 72.2216 37.3662 72.3044 37.17 72.427C36.7739 72.6746 36.4923 73.0694 36.3873 73.5246C36.2822 73.9799 36.3623 74.4581 36.6099 74.8543C36.8575 75.2505 37.2523 75.532 37.7075 75.6371C39.9836 76.3651 41.9873 77.7624 43.457 79.6466C44.9267 81.5309 45.7941 83.8145 45.946 86.1993C44.6841 86.3722 43.3995 86.263 42.1849 85.8794C40.9703 85.4959 39.8559 84.8475 38.9222 83.9812C37.0738 81.0766 37.5491 82.0272 37.0738 80.3373C36.9672 79.9043 36.7624 79.5016 36.4752 79.1605C36.188 78.8194 35.8261 78.549 35.4176 78.3703C35.009 78.1916 34.5649 78.1093 34.1194 78.1299C33.674 78.1504 33.2392 78.2733 32.8489 78.4889C30.8421 79.4395 30.0499 81.3935 28.9409 82.5553C27.3047 84.0794 25.3365 85.202 23.1917 85.8345C21.047 86.4669 18.7845 86.5918 16.5832 86.1993C16.8305 84.2584 17.4592 82.3856 18.4331 80.6886C19.4069 78.9916 20.7068 77.504 22.2578 76.3113C23.8088 75.1186 25.5803 74.2443 27.4705 73.7389C29.3607 73.2335 31.3321 73.1068 33.2714 73.3662C33.6532 73.3579 34.0192 73.2119 34.3019 72.9552C34.5847 72.6984 34.7652 72.3482 34.8102 71.9689C34.8552 71.5897 34.7616 71.2069 34.5468 70.8911C34.332 70.5754 34.0104 70.3478 33.6411 70.2504C11.2493 67.0817 3.59169 96.6558 19.0125 107.218C13.4162 108.355 8.36028 111.329 4.64791 115.668C3.44034 117.073 2.53945 118.715 2.00291 120.488C1.46636 122.261 1.306 124.127 1.53206 125.966C1.53206 126.386 1.69898 126.789 1.9961 127.086C2.29322 127.383 2.6962 127.55 3.11639 127.55C3.53658 127.55 3.93956 127.383 4.23668 127.086C4.5338 126.789 4.70072 126.386 4.70072 125.966C5.07039 122.005 9.66494 118.784 12.8336 116.301C15.916 113.706 19.3469 111.555 23.0261 109.911C23.2588 109.829 23.4738 109.704 23.6598 109.542C28.6738 111.158 34.0847 111.046 39.0278 109.225C42.8134 110.992 46.362 113.227 49.59 115.879C52.7586 118.361 57.3532 121.583 57.7229 125.543C57.7229 125.751 57.7638 125.957 57.8435 126.15C57.9231 126.342 58.0398 126.517 58.1869 126.664C58.334 126.811 58.5087 126.927 58.7009 127.007C58.8931 127.087 59.0991 127.128 59.3072 127.128C59.5152 127.128 59.7213 127.087 59.9135 127.007C60.1057 126.927 60.2804 126.811 60.4275 126.664C60.5746 126.517 60.6913 126.342 60.7709 126.15C60.8505 125.957 60.8915 125.751 60.8915 125.543C61.0711 122.402 60.3329 119.277 58.7669 116.548C57.2009 113.819 54.8747 111.605 52.0721 110.175ZM25.9835 103.891C23.0302 102.973 20.4714 101.089 18.7185 98.5408C16.9656 95.9928 16.1205 92.9295 16.3191 89.8432C19.2569 90.8916 22.4287 91.101 25.4789 90.4481C28.529 89.7952 31.3371 88.3056 33.5883 86.1465C35.1078 87.8196 37.036 89.0692 39.1838 89.7728C41.3317 90.4764 43.6255 90.6098 45.8404 90.1601C44.837 101.039 37.6547 106.848 25.9835 103.891Z" fill="black"/>
</g>
<defs>
<clipPath id="clip0_319_2424">
<rect width="126.746" height="126.746" fill="white" transform="translate(0 0.698364)"/>
</clipPath>
</defs>
</svg>
